<?xml version="1.0" encoding="utf-8"?>
<!-- Generator: Adobe Illustrator 23.0.2, SVG Export Plug-In . SVG Version: 6.00 Build 0)  -->
<svg version="1.1" id="Capa_1" xmlns="http://www.w3.org/2000/svg" xmlns:xlink="http://www.w3.org/1999/xlink" x="0px" y="0px"
	 viewBox="0 0 640 640" style="enable-background:new 0 0 640 640;" xml:space="preserve">
<style type="text/css">
	.st0{fill:#00202B;}
	.st1{clip-path:url(#SVGID_2_);fill:none;stroke:#FFFFFF;stroke-width:10;stroke-linejoin:round;}
	.st2{fill:#4DCC89;}
	.st3{fill:#FFFFFF;}
	.st4{fill:#EB3B5A;}
</style>
<g>
	<path class="st0" d="M613.9,241.25c-21.48-80.15-54.99-153.86-98.07-219.72c-7.85-12-20.94-19.56-35.26-20.36
		C402-3.21,321.4,4.62,241.25,26.1C161.1,47.58,87.39,81.09,21.53,124.17c-12,7.85-19.56,20.94-20.36,35.26
		C-3.21,238,4.62,318.6,26.1,398.75c21.48,80.15,54.99,153.86,98.07,219.72c7.85,12,20.94,19.56,35.26,20.36
		c78.57,4.38,159.17-3.45,239.32-24.93s153.86-54.99,219.72-98.07c12-7.85,19.56-20.94,20.36-35.26
		C643.21,402,635.38,321.4,613.9,241.25z"/>
	<g>
		<defs>
			<path id="SVGID_1_" d="M613.9,241.25c-21.48-80.15-54.99-153.86-98.07-219.72c-7.85-12-20.94-19.56-35.26-20.36
				C402-3.21,321.4,4.62,241.25,26.1C161.1,47.58,87.39,81.09,21.53,124.17c-12,7.85-19.56,20.94-20.36,35.26
				C-3.21,238,4.62,318.6,26.1,398.75c21.48,80.15,54.99,153.86,98.07,219.72c7.85,12,20.94,19.56,35.26,20.36
				c78.57,4.38,159.17-3.45,239.32-24.93s153.86-54.99,219.72-98.07c12-7.85,19.56-20.94,20.36-35.26
				C643.21,402,635.38,321.4,613.9,241.25z"/>
		</defs>
		<clipPath id="SVGID_2_">
			<use xlink:href="#SVGID_1_"  style="overflow:visible;"/>
		</clipPath>
		<path id="path5940_1_" class="st1" d="M-31.27,294.24l-0.16-0.61h-0.68l-0.53-1.14l0.84-0.84l-0.3-1.82l0.53-0.08l0.3-0.38
			l-0.61-0.23v-0.68l-0.53-0.08l-0.55-0.73l0.75-0.06l0.48-1.94l0.48,0.05l0.38-0.65l-0.22-1.13l0.81-1.02h0.43l0.48-0.75
			l-0.16-0.81l0.86-0.7v-1.35l0.86-1.88l-0.11-5.81l0.59-0.43l-0.16-1.94l2.21-6.78l0.16-1.88l1.72-3.28l0.81-0.59l0.81-0.27
			l0.81-0.7l0.86,0.16l0.59-0.43l3.12,0.22l1.61-0.59l0.48-0.91l1.78-1.4l0.27-1.13l-0.75-0.54l0.05-1.67l-1.72-1.99l-0.75-0.22
			l0.11-1.29l-1.24-1.99l-1.72-0.38l-0.97-0.97l-0.43-2.05l-0.54-0.48l0.16-1.45l0.59-0.16l0.11-1.24l1.61-1.61l1.02-2.1l1.18-0.22
			l0.65-0.86l0.59-0.05l0.59,0.48l3.88,0.05l0.91,0.38l0.22,0.48l0.48,0.16l1.35-1.18l-0.05-1.4l0.54-0.38l0.32-3.28l-1.29-3.07
			l-1.56-1.61l-0.81-2.8l-0.22-2.31l0.11-1.78l1.51-3.5l0.65-0.48l0.11-1.72l-2.15-1.61l-3.5,0.05l-2.74-1.94l-2.64-1.4l-0.92-7.32
			l4.09-9.2l3.82-3.5l0.43-4.2l0.7-0.86l-0.38-2.91l3.12-5.17l2.05-2.1l0.7-2.8l1.83-2.15l1.88-3.07l3.28-2.64l2.19-0.27l0.52,0.7
			l-0.48,0.86l0.43,3.5l1.08,2.42l0.05,1.08L7,169.96l-0.38,0.43v0.7l1.67,1.89l0.48,1.24l1.56,1.18l0.11,0.81l0.92,0.92h1.89
			l1.56,0.43l1.29,0.75l0.05,0.38l0.54,0.43l-0.11,3.18l0.86,1.24v1.35l-1.13,0.81l-0.59,1.35l0.59,1.02l0.16,1.35l0.43,1.18
			l2.05,1.13l0.22,0.81l1.99,1.67l0.27,1.08l0.59,1.13l-0.59,0.97l0.48,0.48l0.11,1.72l0.81,3.23l1.45,1.56l0.05,0.43l0.7,0.22
			l0.32,0.86l0.22,1.29l1.4,1.56l0.27,1.02l3.02,1.18l1.72,1.89l0.92,0.32l4.42,0.59l1.4,1.4l0.38,1.45l1.56,1.78h0.7l0.11-0.48
			l2.15-0.59l1.89,0.11l1.35,1.13l1.99,0.59l1.13-0.38h1.13l3.23-2.48l0.54-1.56l0.7-0.05l1.99-2.1l0.86-0.32l2.91-2.37l1.99-0.48
			l0.7-0.48l0.81-0.16l0.05,0.48l3.61,0.97l0.48,0.59l1.72,0.11l1.45,1.56v1.72l-1.45,4.04l-0.05,1.08l-1.13,1.4l-0.48,2.26
			l0.59,0.16l-0.05,1.4l2.32,3.66l0.05,0.59h0.32l0.05,0.43l-0.7,0.32l-0.92,2.75l-0.48,0.27l-0.16,2.1l0.43,0.38l0.43,2.1
			l0.54,0.65l0.22,2.64l1.02,1.4l2.42,1.18l0.22,0.81l1.51,0.65l0.43,0.59l-0.05,1.02l0.59,0.97v1.02l0.38,0.32l0.16,1.24
			l-0.65,0.92l-0.48,4.04l-0.7,2.37l-1.51,0.92l-0.7,3.18l-0.48,1.24l-0.05,2.15l1.67,2.32l2.66,0.46l1.29,1.29h1.29l1.51-2.26
			l3.88-0.75l1.4-1.51l-0.22-4.74l2.48-3.01l-0.43-3.98l2.37-2.05l1.4,0.11v1.18l6.89,7.21l3.55,0.65h5.81l1.08,0.97l-0.43,1.83
			l0.43,6.46l1.4,3.55l6.14,2.69l0.32-0.97l3.44-0.86l1.4,1.08l1.08,1.29l3.77-0.32l2.48,1.72l1.29,2.8l2.04,7.62l0.22,3.98
			l2.8,2.69h1.4l1.18,3.01l1.18,1.08l1.18-1.72l3.55-1.51l3.55-2.05h1.18v1.08l3.34,1.72l6.17-0.35l2.48-0.54l1.83,0.54l0.65,2.05
			v3.55l1.4,1.18l2.26,0.43l1.4-1.72l6.78-3.88l4.02-1.01l1.83,2.13l0.3,2.44l1.98,1.67l1.22-1.22l-1.07-2.44l4.41-6.55l0.3-3.65
			l2.8-3.34l1.72-0.3l1.02,1.26l5.05-0.12l3.1,1.13l1.3-1.13l0.33-1.16l1.3-0.55l0.4,0.36v0.96l1.64,0.7l3.19,3.98l1.68,1.26
			l4.39,1.8l1.14,1.56l0.48,3.43l-0.3,0.84l2.35,2.23l1.44,0.06l1.68-1.32l0.72-3.49l1.86-1.74l0.54-3.97l-0.24-1.14l1.02-1.68
			l0.3-2.65l-1.14-0.72l-0.36-2.23l0.84-1.38l0.9-3.37l0.72-4.33l2.71-4.39l1.32-3.73l0.72-0.3l-0.48-3.91l-1.32-2.17l-2.65-0.36
			l-3.25-2.35l-0.12-2.65l-0.96-0.9l-0.39-1.61l0.41-0.81l0.58,0.1l1.15-0.95l1.66-2.06l1.29-0.61l0.71,0.03l1.73-1.15l1.25-1.76
			l2.13-3.96l0.37-2.71l-0.17-1.46l0.54-0.78l-0.03-2.34l0.78-0.88l-0.27-1.12l0.68-1.62l1.42-1.52l0.54-0.03l1.25-0.88l3.79-1.93
			l0.54-1.46l0.78-1.15l0.91-0.27l1.52-1.66l1.08-1.79l1.49-1.86l0.47-1.15l0.24-1.86l0.68-1.08l0.24-1.96l2.54-2.37l0.74-1.86
			l-0.78-0.95l0.41-0.88l3.28-1.56l1.96,0.2l0.74,1.29l3.35,1.96l2-0.07l3.82,3.76l1.83,0.61l2,1.39l2.88,0.44l0.88-0.68l1.69-0.17
			l0.58,0.58l-0.71,1.22l3.18,3.08l-0.2,0.74l1.49,1.79l3.01,2.3l-0.3,2.06l0.71,0.64l1.22,0.51l0.51,2.3l0.81,0.88l0.85,0.03
			l0.85,0.68l-0.58,1.86v2.03l-1.15,1.62v2.13l0.54,0.44l-0.03,1.86l-1.56,0.85l-0.3,2.98l-1.49,1.05l-0.44,1.39l0.68,0.37
			l0.14,2.37l-2.17,0.81l-0.78,1.52l0.68,0.41l0.14,1.15l-0.98,1.86l-1.86,1.39l0.03,2.1l-1.79,0.95h-2.2l-0.24-0.98l-1.79-0.34
			l-3.15,2.03l-2.03,0.47l-0.88,1.42l1.18,1.15l0.03,2l-1.96,1.29l-0.24,0.78l0.91,0.41l-0.27,1.66l-1.79,0.91l0.08,1.98l-2.11,2.97
			l0.48,2.68l2.39,0.38l3.45,4.07l3.35,1.01l0.96,2.39l-0.72,1.05l1.1,0.53l0.14,1.15L276.5,287l1.05,1.58l1.68-0.86l2.58,0.19
			l0.19,0.77l3.69,1.34l1.05,1.48l2.87-2.82l-0.05-2.11l3.16-4.83l1.48-0.96l1.1-5.26l1.34-1.44l-0.67-0.53l0.38-2.54l1.1-2.78
			l2.39-0.96l0.29,0.38l3.97-0.57l0.24,0.62H310l3.35-0.96l2.06-2.39l0.29-1.34l-0.91-0.43l0.38-3.49l1.91-0.81l0.57-2.25l0.86-0.57
			l1.05-3.78l2.19-2.81l1.64,0.06l3.4-3.45c0,0,0.28-2.49,0.51-2.55c0.23-0.06,1.47-0.11,1.47-0.11l0.74-1.92l-1.19-0.57l0.51-0.91
			l1.36-0.57l-1.41-1.98l-0.06-3.34l4.3-3l0.96-1.92l1.47-0.4l0.23,1.08l4.53,1.13l0.68,1.41l4.7,2.94l-0.23,2.38l2.72,1.92
			l9.34,0.11l2.66-1.7l2.21-0.17l0.28,0.96l3.51,2.6l1.41-1.19v-2.09l3.17-3.23l0.74,0.17l2.6,0.45l1.53,1.47l4.7,0.11l0.11,0.74
			l1.53,0.68l0.28-1.58l1.3-0.62v-1.41l1.81-2.21l0.62,0.28l1.75-2.66l-0.57-2.43l2.15-1.08l0.06-1.19l2.43-2.55l1.81-0.28
			l0.79-2.49l-0.79-0.34v-1.19l1.13-0.51l0.62-1.53l-0.51-0.85l1.02-1.24l-0.96-0.74l-0.06-0.85l2.55-0.74l-0.34-1.53l0.91-0.85
			l0.91,0.34l0.91-0.68l-0.11-0.85l0.85-1.08l0.91,0.23l1.3-0.74l-0.57-0.85v-0.85l1.36-0.96l0.96-1.98l1.53-0.74v0.51l0.74,0.06
			l2.15-2.21l0.11-1.36l1.19-0.57l5.04,0.28l1.08-1.41l-0.06-1.98l-0.74-0.85l1.02-1.13l0.74-0.28l0.06,0.79l5.26,0.23l1.08-0.85
			l2.32-0.57l1.24-2.26l-0.17-2.21l1.92-1.87l-0.85-1.64l2.32-2.89l0.28-2.94l1.81-1.36l-0.06-1.81l4.47-0.11l1.08,1.19l1.81,0.51
			l1.13-2.77l3.17-2.32l1.87,0.34l1.08-0.28l0.74-1.64l-1.36-4.02l0.51-5.26l0.91-0.62l0.34-3.85l2.26-1.58l1.98,0.62l0.11-1.24
			l-1.41-1.53l-0.17-2.04l-2.15-0.28l-2.72-1.92l-0.11-2.89l0.85-3.68l3.9-1.53l-0.62-1.87l0.62-0.96l1.24-0.79l0.23-1.19
			l-0.68-1.75l-1.7-1.08l0.17-3.17l-1.08-0.91l-0.4-5.89l1.19-3.4l0.79-2.72l2.09-1.3l0.17-1.02l-3.28-2.83l-0.68-4.3l0.91-0.79
			l-0.23-0.79l-2.32,0.96l-0.51-0.85l-1.47-0.23l-0.85,0.91l-1.24-1.7l-1.81-0.4l-1.81-3.11c0,0,0.45-3.73,0.17-3.73
			c-0.28,0-3.51-0.96-3.51-0.96l-3,0.34l-2.55-2.49l0.91-1.02l0.34-2.38l-1.24-0.74l-0.06-0.62l4.24-3.11l0.62,0.23l1.98-0.45
			l-0.45-1.24l1.92-1.36l0.45,0.74h1.24l0.57-0.62h2.43l0.34,1.98l2.77,1.36l1.32,0.24l-0.56,1.84l3.92,2.24l2.24-0.64l0.88,2.16
			l2.08,0.64l1.04,1.44l-0.24,1.12l4.56,6.8l-0.08,1.44l0.88,0.96l0.72,4.96l1.12,1.28v0.8l2.16,2.24l-0.08,2.32l4,3.36h2.72
			l2.4-1.04l1.04-0.08l5.68-3.04l1.52-2.88l3.84-3.68l4.96-2.08l2.32-0.08l1.68-0.64h1.52l2-0.88v-1.12l-3.28-1.28l-0.08-4.4
			l-1.2-0.8l0.4-1.44l2.56-2l1.04-3.6l-2.8-3.2l-0.08-1.84l0.48-0.32l0.16-2.32l1.6-1.84l1.28,0.16l2.88-2.72l0.32-4.8l1.44-2.24
			l3.68-1.04l0.56-0.72l-1.28-0.88l0.4-1.04l2.16-0.72l0.4-2l0.8-0.08v-5.6l-1.28-1.04v-1.6l1.28-0.72l0.48-2.8l-0.96-1.92
			l-0.16-2.16l-3.2-2.48v-1.44l3.28-1.6l-1.12-5.04l1.2-0.4l-2.48-0.96v-6.64l-0.8-0.64l0.64-1.04l2.08-2.64l1.68-0.24l-0.88-1.92
			l0.16-1.68l1.92-1.84l0.08-2.48l-2.48-2.08l-0.24-3.76l-1.04-1.12l-1.6,0.4l-1.84-1.68l1.52-2.32l0.8,0.24l0.72-0.8l-0.64-0.72
			l-0.08-3.12l-1.28-0.88l1.28-2.48l-0.88-0.8v-1.12l3.36-0.8l0.24,1.12l1.44,1.84l1.84,0.48l1.92,2.88l6.16,2l0.24,1.2l6.32,2.96
			l2.16,0.08l0.32,0.48l3.36,0.08l1.04-1.52l4.64-3.36l1.84-0.4l0.8,0.56l1.6-0.32l0.24-2.24l2.08-0.88l4.08-5.28l2.32-0.8
			l2.88-6.48l-0.16-3.68l4.8-9.6l2.96-1.2l0.8,0.8h2.4l2.16,0.72l0.16,1.12l-0.56,0.48l-0.4,2.8l-0.72,1.36l0.72,0.72l1.28,0.32
			l0.8,0.96l2.64-0.72l0.08-1.44l3.2-0.16l1.2-3.44l2.08-1.44l0.8,0.24l1.04-0.64l-0.96-1.52v-3.2L583-30.2l0.08-2.88l2.56-1.68
			L589-35l3.36,2.16l-0.16,0.96l1.44,1.52l5.12,0.4l1.28,1.04l1.92-0.96h1.28l0.24,0.64l2.32-0.08l1.76-1.84l1.68,0.08l2.48-2h1.6
			l0.56,0.96l8.24,2.08l0.16,1.44l7.44,4.8c0,0,1.2-0.48,1.84-0.56c0.64-0.08,6.88-0.48,6.88-0.48l0.48,0.4l6.52-0.52l-3.4,2.6
			l-0.32,4.64l-3.38,3.2l-0.25,4.31l-2.04,2.76l-2.06,5.46l-0.97,4.69l-3.88,7.23l-1.24,0.98l-2.45,6.35l-0.3,2.6l-2.16,3.64
			l0.24,5.84l-2,1.92l-0.24,2.56l-2.08,2.8h-1.44l-3.12,2.08l-0.72,2.16l-1.04-0.32l-0.64-0.88l-2.56,0.32l-0.56,1.12l-1.12,0.32
			v1.76l1.68,2.8l-0.88,1.36l-2.08,0.88l-1.04,2.24l0.96,0.48l-0.88,3.76l-2,3.6l1.04,4.72l-2.16,2.88l-0.64,5.2l1.28,2.16
			l-0.08,7.44l-1.92,3.6v4l0.8,7.2l-1.68,1.04l-1.68,4.24l-3.28,1.36l-2.64-0.16l-1.12,1.36l-2.16,0.08l-1.36,1.68l2.24,0.96
			l0.94,2.33l-0.79,1.02v1.47l-2.26,1.02l-3.51-1.92l-1.81,0.57h-1.36l-1.13,0.91v3.06l0.34,1.02l-2.94,4.87l-2.04,1.36l-1.02,0.11
			l-1.92,0.68l-0.91-0.79l0.57-2.04l-1.13-0.34l-0.68-1.13l-1.81-0.11l-0.91,1.7l-3.62,2.6l-0.68,2.38l1.02,4.53l-1.24,4.07
			l-2.83,1.58l-1.92,2.6l-3.73,0.57l-0.68,1.24l0.91,1.24l0.11,2.94l-2.04,1.13l-2.38,3.62l-2.26,1.47l-0.91-0.11l-2.26,1.36
			l-2.23,0.64l-1.69,0.22l-0.96,0.4l-1.6,2.8l-2.48,0.72l-1.2,2.64l0.16,1.52l1.92,2.08l-1.28,2.08l0.4,2.8l-2.64,2.24l1.04,0.88
			v3.44l-2.4,3.52l-0.4,2.32l-2.16,0.88l0.72,0.88l1.52-0.08l1.44-1.2l3.04,1.6c0,0-1.28,2.24-1.28,2.64c0,0.4,0.56,2.8,0.56,2.8
			l4.24,1.68l1.2,2.24l-0.96,1.84L539.7,195l-1.92-0.24l-0.8,1.28l1.52,3.2l1.44,0.32l0.8,1.68l3.12,1.92l2.08-1.12
			c0,0,1.76,0.88,2.16,0.96c0.4,0.08,0.24,0.96,0.24,0.96l4.56,2.32l1.68,0.08l0.32,1.84l-1.12,0.72l0.24,2.32l-1.92,0.88
			l-1.36,1.76l-1.6-0.48l-3.2,2.56l-2.24,0.4l-0.48,1.68l1.36,3.12c0,0,0.16,2.72,0.24,3.28c0.08,0.56,1.04,2.08,1.04,2.08v3.76
			l-1.44,0.96l-0.08,1.92l-2.24,2.16v0.88l0.8,2.56l-0.4,1.44l-0.88,0.16l-2.16,1.68l-0.56,3.04l-0.88,1.2l0.08,5.36l1.76,1.04
			l-1.6,0.16l-1.68-0.32l-1.2,0.56l-3.84-0.56l-0.24-0.48l-4,2c0,0-2.96,2.88-3.36,3.68c-0.4,0.8-1.2,0-1.2,0l-1.12,1.04l0.48,1.04
			l-1.92,4.96l0.4,0.88l2.8-0.48l3.44,0.8l0.64,1.2l1.12-0.08l0.48-0.48l2.8,1.04l1.12,0.8l1.2,0.16l2.64,4l2.24,0.64l1.76,1.84
			l4.08,0.32l2.24-1.04l0.56,0.16l-0.48,1.76l2,0.8l1.76-0.64l1.04,0.64l0.56,2.48l0.72,0.16l1.12-1.28l2.24,4.24l1.6-0.48l2.56,2.8
			l-0.08,1.6l-1.2,0.72l0.16,1.36l3.2,2l1.92,0.08l1.12,1.6l0.48,1.92l-0.8,0.96l0.8,0.72h1.68l0.08,1.52l4.96,5.92l-2.96,4.16
			l-0.56,3.36l-2.32-0.64l-0.64-0.96h-1.6l-1.6,1.12l-0.16,1.84l-0.88,0.32l1.12,1.92l1.68-0.08l-0.8,5.44l-0.96,0.96l1.92,1.44
			l-0.48,1.68l-2.24,0.4l-1.76,1.44l-0.8-0.4l-1.76,2.16l1.36,2.48l1.36,4.4c0,0-1.84,1.84-1.92,2.32
			c-0.08,0.48-0.24,4.64-0.24,4.64l-1.04,0.88l1.36,2.08l-0.08,4.16l-1.04,1.04v2.72l-3.84,1.84l-5.12-2.4l-1.52-2.72l-1.84-0.32
			l0.16-1.04l-1.44-1.68l-1.28-0.16l-0.4-1.36l-1.92-1.12l0.16-1.76l-1.76-3.76l-3.6-2.32l-2.48,0.88l-0.64,0.72l-1.52-0.08
			l-2.08,1.76l-0.08,2.64l-3.04,2.8l-1.52,2.88l1.12,2l-2.64-0.24c0,0-2.96,1.84-3.2,2.24c-0.24,0.4-0.4,1.68-0.4,1.68l-1.84,1.6
			l-0.88,0.16l-4.32,3.04l0.16,3.36l-3.68,7.76c0,0-1.84,0.24-2.16,0.4c-0.32,0.16-3.68,2.64-3.68,2.64l-0.96,1.76l-3.36,4
			l-1.36,0.24l-3.68,2.96l-1.36-0.4l-2.4,3.04l1.92,1.52l1.92,0.24l-1.36,3.44l-2.16,2.4l-1.28-0.24l-1.2-2.08l-2.64,1.2l-1.12,1.44
			l-2.72-0.4l-0.08-0.4l-5.12,2.88l-0.16,2.8l-1.04-0.24l-2.32,1.84l0.24,2.96l-2.64,2.56h-1.2l-0.72,1.68l-1.28,0.48l-0.48-0.24
			l-2,0.88l-0.4,1.36l-4,1.6l-0.16,0.8l-2-0.8l-0.08-0.48l-1.68-0.32l-1.28-1.68l0.48-0.56l0.16-4.16l-2.16-2.72l-2.56-0.4
			l-2.24-1.44v-0.56l-3.36-1.36l-4.08-6.08l-0.32-2.08l-3.76-2.08l-2.72-1.92l-0.16-0.88l-3.12,1.68l0.08,1.04l-3.52,1.84
			l-0.16,1.12h-1.36l-1.76,1.12l-1.2,2.16l-5.6,5.04l-0.24,2l-3.84,2.96l-1.6,0.24l-1.52,1.36l-0.56,2.48l2,1.36l-1.92,1.76
			l-1.76,2.88l0.72,1.68l-1.84,1.2l-3.68-0.8l-2.8,1.04l0.24,1.76l-0.88,0.88l-0.8-0.16l-2.2,0.87v2.77l2.41,3.13l1.2,0.12l0.6,1.8
			l-0.96,2.89l-2.05,1.08l-0.48,2.41l0.36,0.96l-0.72,1.93h-1.2l-0.36,1.93l-0.96,0.48l0.72,1.08l-1.93,1.2l-1.2,0.12l-0.96,1.2
			l0.68,2.13l1.79,2.19l1.34,0.28l3.05,2.64h0.89l1.91,1.5l-0.04,1.83l2.07,2.27l1.42,0.45l2.11-1.62h1.18l0.77,1.01l0.53,7.84
			l-6.58,5.28l-0.24,1.75l1.58,1.46l-0.28,0.97l-3,1.71l-4.71,4.75l-1.91,3.29l-1.54,1.34l0.12,1.83l-1.14,0.85l-0.69-0.32
			l-0.24-0.85l-3.33-2.8h-2.07l-1.3-1.83l-1.99-0.12l-0.37-0.97h-0.81l-0.53,0.73l0.69,0.28l-0.2,0.61l-0.65,0.02l-0.2,0.87
			l-1.18,0.34l-0.17,1.53l-0.94,0.51l0.17,1.28l1.02,0.6l-1.28,2.89l-0.51,0.09l-1.87,3.83l0.6,3.15l-2.89,3.49l0.34,4.85l1.53,2.89
			l0.77,1.45l-0.85,0.34l0.26,1.62l-1.19,1.11l-1.62,0.51l0.34,1.62l0.85,0.68l-0.34,1.19l-1.28,0.09l-0.6,2.21l-2.72,2.55
			c0,0,0,1.45,0,1.87c0,0.43-0.77,0.94-0.77,0.94v1.53l-1.36,0.85l-0.43,1.87l1.62,2.64l-0.6,1.11l2.38,1.79l1.02,0.6l0.77,1.53
			c0,0,0.51,0.94,0.77,1.28c0.26,0.34,0,1.28,0,1.28l0.94,0.09l1.53,2.55l-0.43,1.62l-0.68,0.43l0.17,1.11l0.6,0.94l-0.83,0.82
			l-1.98,1.13l-1.9-1.91l-2.43,4.24l1.58,1.59l-1.79,2.12l-0.11,1.91l-2.21,2.23l-0.53,4.46l-2,1.17l-1.79,3.71l-3.69-3.71
			l-1.27,1.59h-2l-3.9,2.55l-2-1.7l-2.21-0.32l-1.37-1.06l-2.32,0.11l-1.37-1.17h-1.9l-3.48-2.02l-2.85,0.85l-1.16-0.74l-0.84-2.33
			l-1.79-1.8l1.27-2.86l0.32-2.44l2-2.33l-0.53-2.02l-1.79,0.32l-1.58-1.06l-2.53,0.85l-2.32-0.32l-0.53-1.06l-1.58,0.42l-1.16-0.64
			l-3.9,4.14l-1.48,0.21l-2.21-1.49l-1.37-0.11l-1.79-1.91l1.05-2.12l-0.84-1.27v-2.23l-0.84-2.55l-2.01-2.06l-3.27-3.18l-4.43-1.27
			l-3.38-0.42l-2.11-3.4l2.53-3.4l-3.38-1.91l0.63-2.33l-2.53-1.7l-1.69-0.42l-1.48-4.88l-1.69-2.97l-3.8,0.42l-2.95-0.64
			l-4.64-1.91l-0.84,2.55l-4.22-2.97l-3.8-0.21l-2.74,2.33l-3.38,0.64l-2.95,0.21l-1.48-2.76l-1.69-0.21l-2.11-2.97l-0.63-3.82
			l-1.48-2.12l1.48-2.12l-0.21-1.7l2.95-3.18l1.48-3.18l2.53-2.76l0.21-2.55l2.53-1.7l-3.8-5.31l0.21-2.97l1.48-1.7l5.91-2.33
			l2.11-2.55l0.43-2.72l-0.32-5.09l-2.32-4.56l-0.21-5.84l1.27-2.86l2.11-2.33l-0.84-1.38h-2.95l-1.48-1.59l-2.21-1.27l-0.63-3.61
			l1.05-2.02l-3.9-1.38l-0.32-7.32l2.21-2.23l-2.11-0.53l-1.37-4.14l0.42-1.49l-1.58-3.71l0.53-2.55l-4.43-3.71l-4.43-2.02
			l-3.59,0.85l-4.64-4.77l0.95-2.44l-0.12-4.55l-0.09-3.52l-0.74-1.7l0.72-2.32l0.86-2.78l-0.32-2.65l-2.64-1.27h-3.59l-2.21-2.12
			l-3.48-1.27l-2.32,0.95l-1.27-2.86l-5.59-2.65l0.95-1.91l-0.95-3.93l-3.8,3.61l-3.06-2.97l-3.69-0.64l0.95-2.97l-1.37-2.23
			l-4.47,1.6l-1.94-4.59l-4.25,2.03l-4.11-3.29l-1.58-2.94l0.04-2.99l0.45-5.84l0.9-0.66l0.11-1.76l-3.38-3.3v-1.54h-2.71
			l-1.58,2.64l-1.58,2.2h-2.48l-2.03,1.76h-2.82l-2.37,3.63l-2.59-1.21l-4.96,2.97v1.76l-1.01,0.55l-1.58-1.98l-0.9,0.55l-0.92,2.08
			l-2.87-2.8l-0.16-1.4h-1.43l-0.32,1.87l1.43,4.05l1.43,1.87l-0.48,1.87l1.43,5.92l0.01,4.83l-0.01,0.46l-2.71,2.49l-2.07-1.4
			l-0.8-1.4l-2.39,0.47h-1.75l-0.64-0.93l-1.43,2.02h-1.91l-2.39,2.49l-0.64-1.09l-1.91,1.4l0.16,2.18l1.59,1.56l-0.48,1.25
			l-1.59,0.78l0.64,1.09l-1.29,4.46l-3.86,4.57l-2.47-0.13l-3.77,4.03l-2.23-1.87l0.32-3.74l-2.07-1.71h-2.55l-3.83-2.65l-0.29-1.71
			l-1.91-2.96l-2.67-0.16l-0.98-1.77l1.13-2.75l0-2.17l-1.76-2.04l1.75-1.25l-0.32-1.4l-2.23-0.16l-0.32-2.8h-1.91v-1.25l-1.59-0.47
			l-2.39,5.14l0.32,3.43l-3.51-1.56l-0.16-0.93l-1.28-0.78l-2.07,1.4l-3.99-2.96l-2.23-2.18l-1.44,0.62l-5.73-4.51v-3.27h-1.12
			l-4.46,3.12h-3.67l-2.23,2.96l-1.43-1.4l0.64-2.96l1.12-6.85l-0.8-5.61l-3.03-3.74l-3.83-2.96h-3.67l-2.87-3.58l0.8-4.36
			l-2.23-5.76H55.7l0.96-1.4l2.39-1.09l0.32-1.71l-0.48-2.49l4.3-2.49l1.43-3.58l-0.48-5.76l-4.46-2.02l-1.12-1.87l-1.59-0.62
			l0.96-1.56l2.23-1.56l1.7-2.9l-2.07-2.02l0.64-2.49l-2.39-2.65l-0.64-2.18l1.34-3.39l-2.12-1.16l-1.37,0.52l-0.13-1.37l0.13-3.12
			l-4.5-2.91v-2.18l-2.71,1.25l-2.87,4.67l-3.67,0.93l-3.67,4.67l-0.96,1.71l-0.48-1.71h-1.75l-2.23,2.8l-2.07,0.47v1.71l-1.59-0.31
			l-2.07,1.09l-0.48,1.4l-2.39-1.09l-1.59-1.4l-2.07,0.16l-0.16,1.09l-0.8-0.62l-0.32-2.18h-4.94l-0.61,0.79l-0.99,1.39l-1.28-0.31
			l-0.16-2.18l-3.99-0.93l-0.96-1.87l-1.43,0.78l1.12,1.09l-1.12,1.25l-1.43-0.62l0.16-2.49l-1.59-0.16l-3.35,2.02l1.12,1.09
			l-0.96,1.25l-0.96-0.62l-0.16-1.09l-2.07,0.93l-0.48,1.71l1.75,1.09l-0.8,1.25l-2.39-0.62l-0.64,1.09l-1.51-2.34l-1.43,1.17v0.78
			l-0.56-0.16l-0.24-0.39l-1.75,0.23l-0.64,0.86l0.08,1.87l-0.64,0.16l-0.4-0.55l-1.59-0.08l-1.36-0.47l-0.56-0.86l-1.04,0.08
			l-1.43,1.25l-0.08-1.17l-0.32-0.47l-0.08-1.4h-0.96l-0.16,0.39l-2.71,1.32l-0.96,0.08l-1.2,1.48l0.48,0.93l-0.32,0.47h-0.8
			l-1.04,0.7l-1.54,0.57L-31.27,294.24z"/>
	</g>
	<g>
		<path class="st2" d="M41.02,179.5c0.7-12.53,7.31-23.99,17.81-30.86c57.62-37.69,122.12-67.02,192.26-85.81l-9.84-36.74
			C161.1,47.58,87.39,81.09,21.53,124.17c-12,7.85-19.56,20.94-20.36,35.26C-3.21,238,4.62,318.6,26.1,398.75l36.74-9.84
			C44.04,318.77,37.19,248.25,41.02,179.5z"/>
		<path class="st3" d="M480.57,1.17C402-3.21,321.4,4.62,241.25,26.1l9.84,36.74c70.13-18.79,140.65-25.64,209.4-21.81
			c12.53,0.7,23.99,7.31,30.86,17.81c37.69,57.62,67.02,122.12,85.81,192.26l36.74-9.84c-21.48-80.15-54.99-153.86-98.07-219.72
			C507.98,9.53,494.89,1.97,480.57,1.17z"/>
		<path class="st3" d="M179.5,598.98c-12.53-0.7-23.99-7.31-30.86-17.81c-37.69-57.62-67.02-122.12-85.81-192.26l-36.74,9.84
			c21.48,80.15,54.99,153.86,98.07,219.72c7.85,12,20.94,19.56,35.26,20.36c78.57,4.38,159.17-3.45,239.32-24.93l-9.84-36.74
			C318.77,595.96,248.25,602.81,179.5,598.98z"/>
		<g>
			<path class="st4" d="M638.83,480.57c4.38-78.57-3.45-159.16-24.93-239.32l-36.74,9.84c18.79,70.13,25.64,140.65,21.81,209.4
				c-0.7,12.53-7.31,23.99-17.81,30.86c-57.62,37.69-122.12,67.02-192.26,85.81l9.84,36.74c80.15-21.48,153.86-54.99,219.72-98.07
				C630.47,507.98,638.03,494.89,638.83,480.57z"/>
		</g>
	</g>
</g>
</svg>
