<?xml version="1.0" encoding="utf-8"?>
<!-- Generator: Adobe Illustrator 23.0.2, SVG Export Plug-In . SVG Version: 6.00 Build 0)  -->
<svg version="1.1" id="Capa_1" xmlns="http://www.w3.org/2000/svg" xmlns:xlink="http://www.w3.org/1999/xlink" x="0px" y="0px"
	 viewBox="0 0 788 421" style="enable-background:new 0 0 788 421;" xml:space="preserve">
<style type="text/css">
	.st0{fill:#20BF6B;}
	.st1{display:none;fill:#FFFFFF;}
</style>
<g>
	<path class="st0" d="M423.4,403.7l-12.7-2.5l-0.4-0.9h-6.1l-0.3-2h-2.3v-6.7l1.4-0.8l-0.3-0.1l-2,0.4l-0.8,2.3h-7l-0.2-1.7
		l-2.9-0.2l0.7-7.1l-1.3-1.7l-3.1-0.4l-0.3-0.3l-3.8,2.3l-1.3-9.9l-0.8-0.4l-3.2-5.7h-5.1l-1.3-1.8l-1.9-0.2l-0.3,0l-0.8,1.9
		l-10.1,1.6l0.2-3.8l-2.2-0.5l-0.5-3.6l-2.1-0.5v-7.3l4.7-4.8l0.5-2.4l-0.6-0.4l0.3-6.6l4.6-3.3l1.3-0.2l0.2-1.8l-1.3-0.6l-0.4-9.6
		l-1.8-0.5l-3.9-6.9l0.4-6.1l-0.1-6.2l-3.5-0.8V303l-6-2.3l-0.5-2l-4.9-2.7l3.9-3.2l-0.2,0l-0.6-6.2h-2.1l-8.5-5.2l-1-2.7l-4.3-1.6
		l-0.1,0.2l-7.9-3.5l-0.2-1.7l-4.3-3.1l-1.2-6.3l0.3-0.7l-0.8,0.1h-1.1l-5.4,5.8l-2.5-0.3l-0.8,8.5l-1.3,0.5L303,281l-4.8-0.5
		l-3.3,2.4l-2.2,0.1l-1,1.8l0.2,3.4l-4.9,4.6l-6.2-2.5l-0.3-1.9h-1l-0.4-1.2l-2.3,1.6l-7.4-7.1h-5l-2-2.3l-3.1-0.6l-6-6.3l0-0.2H253
		l-0.4,0.3l-1.9,5.4l-7-5l-0.7-6.9l1.4-0.8l0.2-3.5l-0.3-0.1l-4.4,0.8l-3.7-5.6l-0.3-4.1l-1.5-0.4v-7.1l1.7-0.8l1.6-4.6l1.1-0.3
		l-3.9-5l1.8-5.6l0.2-0.1l-3.2-5.1l0.8-1.4l-0.3-1.9l-2.5,1.8l-1.9,4.7l-5.4,0.5l-3.1,3.1l-7.6-0.6l-0.8-1.5H212l-6.1-1.8l-0.4-1
		l-0.7,0.3l-1.8,4.2l-5.2,0.7l-1.2,1.7h-4.5l-1.6-1.4l-1.5,3.2l-6.5-3l-0.3-2l-0.4-0.1l-4.8-4.9l3.5-3.3l0.1-8.3l5.5-8.4l3.3-1.4
		l0.5-0.6l-3.6-2.7l-0.3-5.2l6.6-5.7l0.5,0l-1.8-2.1v-6.2l1.7-2.1l-5.8-2.9l0.4-10.2l4-2.4l2.2-8l6-9.9l7.7-3l1.2,8.8l-0.5,1.7
		l0.3,0.8l0.6,0.4l3-0.6l4,5.2l-2.2,2.7l0.1,2.3l0.2,0.2l2.7,0.9l1.1,6.9l1,1.6l0.7,0.6l7.4,0.6v4.5l0.7,1.4l3.2-3l1.8,2.4l5.8-6.7
		l6.7,0.5l4.6,5.4l0.1,4.2l-1.2,1.2l1.1,0.6l-0.3,4.1l4.4,4.2l-0.8,4.2l2.6,0.6l-1.2,4l5-3.1l6.3,5.9l4.5,0.1l4,4.5l1.7,5.5l3.2-0.8
		l7.7,4.7l-0.7,3.7l3.7,4.7l0.3-0.3h2.9l0.2-0.8l6.7-0.4l1,1.6l6.3,0.3l0.2,1l3.8-2.4l6.2,0.7l3.5-4l2.1-0.1l0.3-0.6l8.8-1.3l5,3.7
		l4.8,1.4l0.1,0.3l0.1-0.3l-0.5-7.1l2.1-2.1l0.5-3.8l1.7-1.5v-1.9l-3.5-4.2l-0.1-6.1l3.3-3.1l1.7-9.1l10.2-8.6l-0.1-2.4l8.2-11.3
		l6.5,8.2l2.7,1.4l4.8-0.4l3.2,4.8l-0.2,2.8l6.4,5.6l-0.3,5.8l-1.1,1.7l-1.2,6.6l-5.7,8.8l-1.7,0.1l1.8,2.3l-3.6,4.6l-1.5,0.1l0,0
		l4,4.6l0.4,1l2.8-2.7l-0.1-4.3l6.3-5.8l10.3-1.4l3.5-4c-0.4-1.9,0-2.8,0.1-3.3c0.4-1,1.1-1.7,2.1-2.1c0.1,0,0.4-0.2,0.7-0.3
		l-0.7-2.5l2.3-6.6l1.1-3.9l8.3-1.7l2,5l3.6,2.7l0.2-1.1l6,0.4l1.4-0.7l2.5-6.2l3.9-2.1c0.9-1.8,1.6-2.9,2.3-3.6
		c-0.2-0.3-0.4-0.6-0.6-1c-0.2-0.4-0.8-1.4-1.5-2.3l-4.2-2.5l6.6-5.6l5.2,0.4l4.8-3l6.1,1.8l0.2,1.8l2,0.9l5.1-2.9l2.9-4.1l3-0.8
		l2.3-2.2l-0.7-4.1l5.7-4.3l2.6,0.5l1.2-1l-0.4-1.4l2.7-3.6l-0.1-0.5l-1.7-1.3l-2.7-10.5l4.5-3.2l0.6-1.7l-0.9-10.8l0.7-0.6
		l-0.5-1.6l-1.8-0.5l-5.5-3.4l-0.1-1.3l-4.9-2.1l-0.9-5.5l7.1-7.8l5,0.1l8.9,5.1l6.5,9.3l0.4,5l1.1,1.8l2.2-0.1l5.5-3.9l5.4-2.3
		l-0.6-6.8l1.9-1.5l-1.2-1.2l0.7-6.8l3.5-2.2l0.2-1.5l2.7-2.3l0.5-3.8l0.1,0l-0.3-4.8l2.1-1.7l-2.2-3.7l0.7-2.7l-0.5-0.3l-0.6-10.5
		l2.3-1.3v-3l-2.8-1.9l-1.4-5.5l2.6-1.7l0.2-0.8l-1-2l1.2-5.9l6.6-0.6l2.2,6.1l4.3,2.7h6.5l0.2,0.3l1.4-0.4l3.8-3.3l2.2-0.1l3.1-2.2
		v-5.8l2.5-3.9l-0.1-4.6l10.2-0.8l1,3.6l0.2-0.2h1l0.1-3.1l1.6-0.7l0.5-6.4l8-0.2l2.2,2.6l7.5,0l0.2-1.3h5.6l1.4,0.9l1.3-0.4
		l7.2,3.8l12.1,1l-1.6,8.8l-3.5,4.2l-1.6,7.7l-5.7,8.2l-1.1,5.4l2.2,2.9l-6.1,7.3l-5.6,3h-1.5l0.1,2.5l-4.1,3.3l-0.2,1.3l2,1.7
		l0.5,5.1l-1.5,0.9l0.5,3.9l-1.8,2.5l-0.4,2.4l1.8,6.3l-1.4,9.8l-4.2-1.5l-2.7,1.9l-0.8,4l-2.8,3.9l-2.4-0.6l-2.9,2.9l-6.6,1.5
		l-1.3,0.9v4.2l-4.9,4.7l-0.1,3.7l-5.5,4.3l-4.4,2l-0.6,0.1l-0.8,0.8l0.2,6.1l-1.1,0.8l-0.4,5.2l-0.2,0.1l1.5,0.9l0.2,2.9l1.1,0.7
		l1.3,6.1l-0.5,0.5h3.5l0.7,1.6l3.2,1l1.6,5.6l-2.7,4.8l-3.9,1.5l0.1,0.8l1.6,0.8l0.5,6.2l-2.7,3.1v4.6l-2.6,1.8l2,3.6l-5,3.1
		l-4.9,0.6l-2.1,1.5l0.3,0.5l6.5,0.8l0.6,3.2l2.2,1.3l0.6,0.2l2.7-1.8l2.4,2.9l2.1,0.6l2.8,3.1l2.8,0.5l1.9,4.2l-0.1,0.2l2.2,0.1
		l2,6.6l2.2,1.6l0.3,4.3l-4.2,6.7l-0.8-0.1l0.5,7.3l-2.8,0.8l1,5.3l-1.6,1l0.4,9.4l-1.9,0.7l-0.3,1.5l-8.5,2.9l-1.7-4l-2.2-0.8
		l-3.5-4.4l0.1-1.1l-2.1,0.1l-3.6,5.3l-2.2,0.4l-4.1,3.9v1.9l-2.8,5l-2.4,0.6v2.7l-4.7,2.1l-2,3.1l0.5,0.6l-5.8,8.6l-1.8-2.7
		l-4.4,0.9l-0.3,0.2l-0.9,4.3l-6.3,3.7l-1,2.5h-6.9l-4.5-4.5v-2.2l-1-0.6l-3.3-0.2l-3.6-5.9v-1.7l-0.5-0.4l-4.3,1.8l-2.8,3l-3.3,0.5
		l-0.1,1.8l-1.7,2.5l0.7,1.9l-0.4,4.3l-2.4,1.5l-3.3,6.4v3.7l-4.2,2.4l-1.1,2.2h1.2l0.7,3.7l1.4,1.3l1.8-0.7l5.1,4.7l-0.5,2
		c-0.4,1.6-0.9,3.7-1,4.3c0,0.9-0.4,2.1-1.8,3.2l0.2,1.4l-2.8,3.7l-2,0.6l-3.9,4.1l0.3,2.9l-7.7,2.8l-0.7-1.8l-2.2,0.1v0.5l-1.5,2.2
		l0.2,11.3l-4.5,6.4l-0.3,2.7l4.1,10.9l-4.3,3.7l-1.5-0.5l-0.4,3.5l-2.1,1.2l-1.1,4.8l-5.5,2.8l-0.7-0.7L423.4,403.7z M415.6,395.1
		l2.5,0.5l0.1-0.5l5.7-0.3l0.8-3.7l1.7-1l0.6-5l2.9-2.1l-0.7-1.8l-2.4-1.2v-6.2l1.7-0.7l0.1-1.2l4.2-6.1l-0.2-11.3l1.6-2.3v-4.7
		l6.5-4.1l2.7,3.3l1.6-0.1l6.7-6.9l1.2-0.4l-0.5-3.8l2.6-0.6l-6.4-5.8l0-0.3h-2.3l-0.9-7l3.6-7.2l2.5-1.5v-1.3l4.9-9.7l0.8-0.5
		l-1.2-3.2l2.6-3.9l0.4-6.5l6.1-3.5l1.2,2.4l1.3-1.4l1.6-0.6v-2l6.2-3.1l8.1,7v2.9l0.7,1.2l1.4,0.1l5.7,3.6v3.1l5.5-3.2l0.8-3.9
		l3.6-2.7l1.2-0.3l-1.2-0.3l8.4-6.7l1.8,0.1l1.6-2.3l2.4-1.1v-1l3-3.4l1.7-0.4l0.4-0.7v-3.1l7.7-7.4l1.4-0.3l0.8-1.2l-0.2-2.2
		l5.5-6.3l6.7,0.4l0,3.1l0.1,0l4.2,4.2l-0.1,2l0.6,0.8l2.6,1l0.6-0.2l-0.3-8.1l-1.5-0.9l1.6-7.1l3.1-0.8l0-0.3l-1.2-0.4l-0.6-5.5
		l5.6-3.4l0.4,0.1l0-0.1l-0.9-0.7l-1.2-4l-1.8-0.1l-3.5-4.4l0.3-0.8l-2.4-0.5l-0.3-2.4l-0.5-0.6l-1.9-0.5l-0.2,0.1l-4.6-1.2
		l-5.7-3.4l-0.3-1.3l-4.6-0.6l-1-1.4l-4.9-1.6l2-7.3l7.1-5l2.9-0.3l0.7-4l2.4-1.6v-3.5l2.1-2.3l-1.1-0.6l-0.3-3.6l-2.3-2.3l3.8-4.8
		l3.4-1.3l-1.3-0.4l-0.2-0.4h-3.1l-3.8-3.6v-5.4l0.5-0.5l-1.1-0.6l-0.2-3l-4.1-2.4l1.7-5.5l1-0.9l0.4-5l-0.6-0.2v-4.8l5.5-6l2.2-0.3
		l2.6-1.2l2.2-1.8l0.1-3.3l4.7-4.6v-4.8l5.4-3.9l6-1.4l4.3-4.3l1,0.3l0.8-3.9l7.4-5.2l0.1-0.4l-1.9-6.4l0.9-5.6l1.1-1.5l-0.8-5.7
		l0.3-0.2l-1.2-1l1.1-8l3.6-2.8l-0.2-6.2h7l2.9-1.5l1.6-2l-0.8-1l2-9.9l5.7-8.2l1.6-8.1l3-3.5l-5.5-0.5l-5.9-3.1l-1.7,0.5l-0.4-0.3
		l-16.2-0.1l-0.7-0.8l-0.2,2.7l-1.4,0.6l-0.2,5.4h-4.7l-1.4,1.5h-6.8l-0.7-2.3l-1,1.6v7.3l-7.7,5.6l-1.8,0.1l-3,2.6l-2.4,0.7
		l-4.2,5.1l-2.6-5h-4.3l-5.2-3.3l-0.1,0.6l2.3,1.5v10.8l-2.1,1.2l0.1,2.5l1.8,1.1l-1.3,4.9l2.3,3.8l-0.6,4.2l-0.2,0.2l1.8,0.9
		l-3.4,8.2l-0.7,0.1l-0.2,1.3l-2.6,2.3l-0.3,2.1l-3.4,2.2l0,0.1l1.7,1.7l-0.3,5.4l-2,1.5l0.1,1.4l3.6,2.2l-5.3,6.7l-3,0l-4.1,1.8
		l-6.6,4.7l-8.3,0.2l-4.1-6.6l-0.4-4.8l-4.6-6.5l-3.9-2.2l0.4,4.2l1.7,1.1l4.5,1.4l2.8,9.5l-1.5,1.3l0.7,8.8l-1.9,5.2l-2.4,1.7
		l0.9,3.5l1.9,1.4l1.3,6.1l-2.5,3.3l0.7,2.4L480,159l-2.6-0.5l0.6,3.4l-6.3,6.1l-2.3,0.6l-2.3,3.3l-9.5,5.4l-8.9-4l-1.4,0.9l1.4,0.1
		l-0.4,9.3l-2.7,0.6c-0.9,0.2-1.8,0.4-2.5,0.5c-0.3,0.5-0.6,1.3-0.9,1.9l-0.5,1.1l-3.8,2l-2.5,6.2l-5.5,2.8l-1.8-0.1l-0.3,1.3
		l-7.5-0.3l-7-5.3l-0.9,2.7l1.8,6.1l-2.7,1.3c-0.2,0.1-0.7,0.3-1.2,0.6l0.6,1.5l-8,9.1l-10.7,1.4l-2.3,2.1l0.1,4.3l-8.2,7.8l-6.7-1
		l-1.6-4.4l-2-2.4l-3.5,0.2l-2.7-6.5l4.8-6.1l1.3-0.1l0.3-6.8l5-0.4l3.1-4.7l1.2-6.6l0.8-1.3l0-0.6l-6.5-5.7l0.3-3.2l-2.2,0.2
		l-5.8-3l-1.7-2.2l-1.4,1.9l0.1,3.4l-10.9,9.2l-1.6,8.9l-2.7,2.6l0,0.5l3.6,4.2v7.6l-2.2,1.9l-0.5,3.6l-1.5,1.5l0.4,5.5l-3,7.8
		l-9.1,2.7l-1.2-6l-1.9-0.6l-3.7-2.7l-2.4,0.4l-0.5,1l-3.2,0.2l-4.4,5.1l-6.3,1.5l-0.3-1.1l0,0.4l-11,2.1l-0.7-3.4l-4.6-0.2
		l-0.1-0.2h-3.9l-3.6,3.2l-5.7-3.4l0.2-3.1l-5.1-6.4l0.4-2.1l-1-0.6l-4.3,1.1l-4-4.1l-1.8-5.6l-1-1.1l-4.1-0.1l-3.1-2.9l-0.2,1
		l-9.3,6.2l-5.3-5.1l0.3-7.8l0.5-0.5l-2.4-7.6l1.5-0.7l-2.7-2.6l0.2-2.8l-1.1-0.6l-1-5.8l1.7-1.7l-0.5-0.6l-0.3,0l-6.3,7.2l-5.1,0.4
		l-0.1-0.1l-0.5,0.5l-5.9-0.2l-3.5-7.1l-2.3,0.9l-4.5-4.2l-2.1-3.7l-0.6-4l-0.7-0.2L207,166l-0.2-5.2l-4-2.5l-1.1-2.7l-1.4,2.4
		l-2.7,9.8l-3.2,1.9l-0.1,1.9l5.9,2.9l0.6,5.5l-2.6,3.2v1.2l3.8,4.4l-2,7.4l-4.9-0.1l-1.1,0.9l5.9,4.4l-6.2,7.5l-2.9,1.3l-3.3,5
		l-0.1,8.3l0.8,0.2l0,0.2l3.7-0.5l1.6,1.4l0.2-0.3l4.3-0.6l1.2-2.8l5.3-2.7l5.5,0.4l0.9,2.3l1.9,0.6h4l1,1.8l0.5,0l2.6-2.6l3.8-0.4
		l1.1-2.6l3.6-2.6l0.2-4.1h6.6l4.3,6.3l0,0.3l4.1,0.8l-3.1,5.2l0,0l2.9,0.7l0.4,7.1l-2.5,1.7h4.1l0.6,6.2l-1.1,1.5l-0.2,3.6l-3,0.9
		l-0.6,1.8l0.5,7.1l0.1,0.2l1.9-0.4l6.8,2.9l-0.5,8h9.3l-0.3,4.6l2.3,2.5l1.9,0.4v-0.3l5-4.1l6.5,2l-1.5,5.5l0.5,1.6l2.3,2.2
		l0.4-0.3l6.6,1.6l0.1,0.4h1l2.8-5.2l4.1-0.2l3.8-2.8l0.8,0.1l0.3-1.7l1.1-0.4l0-0.5l-1.1-0.6l-0.8-8.5l6.7-4.6l1.9,3.5l0.4,0l5-5.4
		h3.1l0.6-1.7l9.3-1.7l0.3,9l-1.4,2.9l0.3,1.3l3.4,2.4l0.2-0.4h6l1.1,4.3l5.1,1.9l1.3,3.4l4.8,3h7.1l3.3,7.1l-2.1,1.3l0.7,6.1h6.3
		v4.3l3.4,0.7l0.2,7.4l1.2,0.4l0.6,6.4l-1.9,0.8l-0.1,1.3l1.4,2.5l3.9,1l0.5,10.4l2,0.9l-1.3,12.2l-4.7,0.7l4.6,2.9l-5.4,3.4
		l-0.7,3.2l-3.4,3.5l0.7,0.2l0.4,3.4l1.5,0.3l0.2-0.5l5.1-0.3l5.6,0.5l1.1,1.5h4.9l3.9,3.2l-0.2,2.1l1.2,2l3.1,1.6l1.4,5.3l0.2,0.2
		l3.4,0.5l4.7,6.2l-0.2,2.2l5.6-1.2l7.3,2.5v7.3h4.4L415.6,395.1z M462,336.9c0,0,0,0.1,0,0.1C462,337,462,337,462,336.9z
		 M252.1,206.3L252.1,206.3l1.2-0.8l0.2-0.9l-0.2,0.5L252.1,206.3z M438.1,177.9L438.1,177.9L438.1,177.9z M437.9,177.4
		C437.9,177.4,437.9,177.4,437.9,177.4C437.9,177.4,437.9,177.4,437.9,177.4z M478.5,101.7l-0.8,0.8l1.7-0.3L478.5,101.7z"/>
	<path id="path7313_3_" class="st1" d="M435.2,386.9l-3.1-8.2l-1.7-0.8v-1.7l1.4-0.6l0.2-2.4l4.3-6.2l-0.2-11.3l1.6-2.3l0-3.8
		l2.3-1.4l1.9,2.3l3.8-0.2l0.4,1.1l2-0.7l-0.2-1.8l5.7-5.9l1.8-0.5l1.2-1.6l-0.4-2.5c0,0,2.1-0.5,2.1-1.2c0-0.7,1.1-5,1.1-5l-2-1.8
		l-1.8,0.7l-3.9-3.6l-0.4-2h-2.1l-0.4-2.8l2.7-5.3l3.4-2v-2.5l4.1-8l1.8-1.1l0.2-1.8l-1.1-2.8l2.1-3.2l0.4-5.5l1.2-0.7l1.1,2.1
		l2.5-0.4l2.5-2.7l3-1.2v-2.1l2.1-1.1l5.2,4.5v2.3l2.1,3.6l2.3,0.2l3.4,2.1v2.7l2.5,2.5h3l0.5-1.4l6.1-3.6l0.9-4.1l2-1.4l5.2-1.1
		l1.8-1.2l0.7,1.1l1.4-2.1l-1.4-1.8l-1.4-0.4l1.8-1.4l2.5,0.2l2.1-3.2l3.6-1.6v-2l1.4-1.6l2.1-0.5l1.6-2.8v-2.5l5.9-5.7l1.8-0.4
		l2.3-3.4l-0.2-2l3.4-3.9l1.8,0.1l0,3.4l2.2-0.1l1.9,1.9l-0.1,1.7l2,2.6l2.7,1l1,2.4l3.6-1.2l0.3-1.5l1.2-0.5l-0.3-8.9l1.2-0.8
		l-0.5-2.4l-1.9-1.1l0.6-2.5l3.9-1l-0.3-5.4l-1.2-0.5l-0.1-1.1l2.6-1.6l1.4,0.2l2.4-3.7l-0.1-1.6l-1.8-1.4l-1.6-5.3l-2.7-0.1
		l-1.2-1.6l0.7-1.8l-0.6-1.2l-3.1-0.6l-0.1-0.9l-1.9-2.2l-2.2-0.6l-1.1-1.4l-1.4,0.9l-2.6-0.7l-4-2.4l-0.5-2.3l-5.6-0.7l-0.8-1.1
		l-2.8-0.9l0.8-2.8l5.3-3.7l5-0.6l1.5-0.9l-1.2-2.3l0.3-1.9l2.7-1.8v-4.1l2.6-3l-0.2-2.7l-1.6-0.8l-0.2-3l-1-1l1.2-1.6l4.8-1.8
		l1.4-2.4l-0.7-2.4l-3-0.9l-0.5-1h-4l-1.7-1.6v-2.4l1.1-1.1l-0.6-2.7l-1.4-0.8l-0.2-3l-3.3-1.9l0.6-1.8l1.4-1.1l0.5-5.3l0.9-0.7
		l-0.1-3l-1.2-0.5v-1l3.7-4.1l1.4-0.2l3.5-1.6l3.9-3.1l0.1-3.5l4.8-4.7v-4.5l3.3-2.4l6.3-1.5l3.6-3.6l2,0.5l0.9-1.3l0.9-4.7l5.3-3.7
		l1.9,0.7l0.7-4.8l-1.9-6.4l0.7-4l1.5-2l-0.7-4.8l1.6-0.9l-0.1-1.5l-2.4-2l0.7-4.7l3.9-3.1l-0.1-4.4h4.3l4.3-2.3l3.9-4.6l-1.5-2
		l1.6-7.6l5.7-8.2l1.6-7.9l3.5-4.2l0.8-4.1l-9-0.8l-6.5-3.5l-1.5,0.5l-1.9-1.3h-1.5l-0.2,1.3l-12.1,0l-2.2-2.5l-3.2,0.1l-0.4,5.3
		l-1.5,0.6l-0.2,4.2h-2.8l-1.4,1.5h-2.6l-1.4-4.8l-4,0.3l0,2.3l-2.5,3.9v6.6l-5.4,3.9l-2,0.1l-3.4,3l-2.7,0.8l-1.5,1.8l-1.1-2.2
		h-5.4l-6.2-3.9l-1.7-4.7l-1.4,0.1l-0.5,2.2l1,2.1l-0.7,3.3l-1.7,1.1l0.5,1.8l3.2,2.2v6.9l-2.2,1.3l0.3,6.5l1.1,0.7l-1,3.8l2.4,4
		l-0.2,1.6l-2.2,1.8l0.1,1.6l2.4,1.1l-1.4,3.3l-1.4,0.2l-0.3,2.5l-2.6,2.3l-0.2,1.8l-3.4,2.2l-0.3,3.4l1.7,1.7l-0.1,2.2l-2.3,1.7
		l0.5,5.2l1.7,1l-1.7,2.2l-2,0l-5.2,2.2l-6,4.3l-5.3,0.1l-2.6-4.2l-0.4-4.9l-5.6-7.9l-7.4-4.2l-2.5,0l-4.9,5.3l0.3,1.9l2.8,1.2
		l2.2-0.4l0.3,3l3.6,2.2l3.2,1l1.7,5.5l-1.1,1l0.8,9.8l-1.2,3.4l-3.4,2.5l1.8,7l1.8,1.4l0.7,3.3l-2.6,3.4l0.6,1.9l-4.3,3.6l-2.8-0.6
		l-2.8,2.1l0.7,3.9l-4.3,4.1l-2.6,0.7l-2.6,3.7l-7.3,4.1l-5.5-2.5l-0.1-1.5l-2.3-0.7l-4.4,2.8l-5-0.4l-1.8,1.5l0.7,0.4
		c0,0,2.2,3.2,2.3,3.7c0.1,0.6,3.7,0.8,3.7,0.8l-0.1,3.2c0,0-3.3,0.7-3.9,0.8c-0.6,0.1-2.1,3.6-2.1,3.6l-3.9,2.1l-2.5,6.2l-3.4,1.8
		l-3.9-0.3l-0.3,1.4l-3.4-0.1l-5.8-4.4l-1.2-3.2l-3.3,0.7l-0.6,1.9l-1.9,5.7l1.2,4.3c0,0-2.9,1.4-3.6,1.7c-0.7,0.3,0.4,2.9,0.4,2.9
		l-5.7,6.5l-10.5,1.4l-4.3,4l0.1,4.3l-5.8,5.5l-2.9-0.4l-1.1-3l-3.6-4.1l-2.8,0.1l-1-2.3l2.6-3.3l3.4-0.3l1-1.2l-1.4-1.8l0.1-3.7
		l3.6-0.3l4.4-6.8l1.2-6.6l1-1.5l0.1-3.2l-6.5-5.7l0.3-3.3l-1.4-2.1l-3.7,0.3l-4.3-2.2l-1.3-1.7l-2.8-3.5l-4.8,6.6l0.1,2.9
		l-10.6,8.9l-1.7,9l-3,2.8l0,3.3l3.6,4.2v4.8l-2,1.7l-0.5,3.7l-1.8,1.8l0.4,6.3l-2.1,5.5l-3.8,1.1l-0.8-4.3l-3.4-1l-4.3-3.2
		l-5.6,0.8l-0.4,0.8l-2.7,0.1l-4.6,5.3l-1.8,0.4l-0.4-1.8l-3.6-0.4l-2,1.3l-0.1,1.5l-5,1l-0.6-2.7l-5.5-0.3l-0.8-1.4l-2.1,0.1
		l-0.3,1h-4.2l-2.7,2.4l-1.7-1l0.1-2.2l-4.9-6.2l0.6-2.9l-4.3-2.7l-3.8,1l-2-2.1l-1.7-5.5l-2.5-2.8l-4.3-0.1l-5.3-5l0,0l-1.7,1.1
		l-0.8,3.4l-5.8,3.9l-2.2-2.1l0.2-4.8l1.7-1.5l0.8-2.6l-2.5-0.6l-1-3.1l2.1-1l0.3-1.5l-4.2-4.1l0.2-3.5l-1.5-0.8l-0.4-2.3l2.1-2.1
		l0-1.5l-2.8-3.4l-3.5-0.3l-6.5,7.4l-1.8,0.1l-1.3-1.7l-2.3,2.2l-2.3-0.1l-2.4-4.9v-2.1l-3.6-0.3l-1.1,0.4l-2.5-2.4l-1.5-2.7
		l-0.8-5.5l-1.7-0.6l-1.5-2l-0.1-4.8l1.3-1.5l-1-1.3l-2.2,0.4l-2.7-1.7l-1.2-3l0.6-2.1l-0.5-3.7l-2.4,0.9l-5.1,8.5l-2.4,8.9
		l-3.6,2.1l-0.3,6.1l6.2,3.1l0.3,2.2l-2.4,3.1v3.7l3.4,4l-0.8,3l-3.5,0l-4.2,3.7l0.1,1.9l5.2,3.9l-3.3,4l-3.1,1.4l-4.4,6.7l-0.1,8.8
		l-2,1.8l1.5,1.5l1.7,0.3l0.4,2.6l1.6,0.8l1.2-2.6l2.4-0.3l2.5,2.3h1.3l1-1.5l4.8-0.6l1.5-3.5l3.3-1.7l2.4,0.2l0.7,1.8l4,1.2h2.4
		l0.9,1.7l4,0.3l2.8-2.9l4.6-0.5l1.5-3.6l4.2-3l0.1-2.4h1.5l2.8,4.1l0.3,2l1.6,0.3l-1.6,2.7l1.9,3l1.8,0.5l0.1,2.6l-1.9,1.4
		l-0.9,2.7l2.2,2.9h2.7l0.1,1.7l-0.9,1.2l-0.1,2.3l-2.4,0.8l-1.5,4.4l-1,0.5v2l1.3,0.3l0.4,5.8l1.9,2.9l3.1-0.6l3.6,1.5l-0.4,7.9
		l-1,0.6l0.3,3l1.9,1.4l0.7-2.1l2.2-1.5h5.1l-0.1,2.4l4.2,4.4l3.1,0.6l1.8,2h2.2v-4.1l2.2-1.8l1.5,0.5l-0.9,3.2l1,3.5l5.1,4.9
		l1.5-1.1l3.1,0.8l0.3,0.9h1.5l0.4,2.9l2.2,0.9l2.1-2l-0.1-2.7l2.4-4.4l3.1-0.2l3.6-2.6l2.8,0.3l0.4-3l1.2-0.5l0.4-5l-1.5-0.8
		l-0.4-4.5l1.8-1.2l0.9,1.7l4,0.5l5.2-5.6h2.7l1.3-0.2l0.7-2l3.4-0.6l0.1,4.1l-1.5,3.2l0.7,3.8l4.5,3.2l0.1,1.2l3.1,1.4l1.2-2.3h1.2
		l0.9,3.5l5.4,2l1.2,3l6.7,4.1h5.8l1,2.3l-2.2,1.4l0.3,3l1,0.2l0.4,3.8l-2.2,1.8l1.6,0.9l0.4,1.7l2.4,0.9l1.6-1.4h2.5v3.6l3.4,0.8
		l0.1,7.1l1.3,0.5l0.1,1.5l-1.5,0.6l-0.3,4.5l2.7,4.7l2.8,0.8l0.4,10l1.6,0.8l-0.7,7l-3.1,0.5l-2.5,1.8l-0.1,2.9l2.4,1.5l-1.9,1.2
		l-0.7,3.6l-4.5,4.5v3.2l1.8,0.5l0.4,3.5l2.7,0.6l-0.1,2.4l3.9-0.6l0.9-2.1l2.7-0.2l3.7,0.3l1.2,1.7h5.5l1.5,1.2l-0.1,1.4l2.2,3.9
		l2.7,1.4l0.4,1.7l-1.2,0.9l0.4,3.3l1.8-1.1l1.3,1.5l3.3,0.5l3,3.9l-0.4,4.9l2.2,0.2l0.1,1.5h1.3l0.6-1.8l4.9-1.1l4,1.4v4.1
		l-1.8,1.1v1.2h1.8l0.3,2h5.4l0.6,1.4l7.6,1.5l0.3-1.2l3.3-0.2l0.7,0.8l1.8-0.9l1-4.7l1.9-1.1l0.6-5.3l1.6-1.2l1.3,1.5l0.9,0.3
		L435.2,386.9z"/>
	<g>
		<path class="st0" d="M0,219l105.4-105.4l23,22.6L45.6,219l82.8,82.8l-23,22.6L0,219z"/>
		<path class="st0" d="M659.6,301.8l82.8-82.8l-82.8-82.8l22.6-22.6L788,219L682.2,324.3L659.6,301.8z"/>
	</g>
</g>
</svg>
