<?xml version="1.0" encoding="utf-8"?>
<!-- Generator: Adobe Illustrator 23.0.2, SVG Export Plug-In . SVG Version: 6.00 Build 0)  -->
<svg version="1.1" id="Capa_1" xmlns="http://www.w3.org/2000/svg" xmlns:xlink="http://www.w3.org/1999/xlink" x="0px" y="0px"
	 viewBox="0 0 476 421" style="enable-background:new 0 0 476 421;" xml:space="preserve">
<style type="text/css">
	.st0{fill:#20BF6B;}
</style>
<g id="path7313_2_">
	<path class="st0" d="M269.18,419.5l-12.61-2.52l-0.49-1.12h-6.45l-0.32-2.15h-2.36v-6.03l1.94-1.16v-0.6l-1.55-0.53l-2.85,0.62
		l-0.79,2.41h-6.35l-0.18-1.83l-2.96-0.2l0.66-7.19l-1.79-2.38l-3.43-0.48l-0.55-0.62l-3.71,2.21l-1.32-9.86l0.13-0.1l-1.19-0.61
		l-3.35-5.92l0.05-0.44h-5.96l-1.38-1.94l-2.45-0.2l-0.84,0.05l-0.89,2.13l-9.55,1.5l0.23-3.82l-2.47-0.56l-0.49-3.86l-2.23-0.57
		v-7.03l5.1-5.2l0.7-3.43l-0.7-0.45l0.33-6.32l4.52-3.25l1.82-0.27l0.34-3.14l-1.49-0.69l-0.47-10.52l-2.17-0.58l-3.98-6.99
		l0.42-6.4l-0.15-7.4l-3.78-0.84v-2.26l-0.96,0.8l-5.67-2.17l-0.55-2.07l-4.54-2.52l4.58-3.74l-0.02-0.21l-1.18-0.17l-0.68-6.9
		h-2.76l-8.87-5.42l-1.17-2.99l-5.66-2.08l-0.07,0.14l-7.53-3.29l-0.21-1.71l-4.76-3.39l-1.23-6.26l0.84-1.81l-2.25,0.24h-1.61
		l-5.81,6.26l-3.8-0.43l0.62,0.31l-0.83,9.34l-1.41,0.54l-0.65,4.42l-4.8-0.52l-3.68,2.66l-2.6,0.13l-1.38,2.56l0.19,3.51
		l-4.68,4.43l-5.79-2.36l-0.35-2.27h-1.23l-0.48-1.47l-0.44-0.11l-2.53,1.8l-7.81-7.49H97l-2.17-2.39l-3.36-0.65l-6.09-6.43
		l0.05-0.76h-1.4l-0.85,0.58l-1.8,5.13l-6.47-4.57l-0.65-6.59l1.4-0.82l0.28-4.87l-1.1-0.47l-4.45,0.87l-3.65-5.44l-0.38-4.85
		l-1.64-0.37v-6.51l1.72-0.75l1.68-4.97l2.09-0.67l0.02-0.38h-0.58l-4.3-5.56l1.78-5.43l0.58-0.41l-3.67-5.75l0.8-1.33l-0.46-3.03
		l-0.32-0.46l-3.76,2.74l-1.98,4.85L52.58,228l-3.29,3.36l-7.41-0.56l-0.9-1.68h-1.24l-6.17-1.86l-0.62-1.52l-1.78,0.91l-1.87,4.38
		l-5.56,0.71l-1.27,1.85H18.3L16,231.49l-1.72,3.72l-5.93-2.75l-0.4-2.33l-0.72-0.14l-4.43-4.53l3.44-3.21l0.13-9.17l5.78-8.78
		l3.53-1.55l1.16-1.41l-4.28-3.2l-0.33-4.94l6.61-5.75l2.04,0.02l-2.96-3.43v-6.18l2.25-2.84l-6.76-3.36l0.43-10.19l4.28-2.52
		l2.42-8.93l6.29-10.49l7.13-2.75l1.17,8.37l-0.58,1.93l0.57,1.38l1.11,0.71l3.07-0.58l3.66,4.71l-2.18,2.66l0.09,3.09l0.51,0.65
		l2.72,0.91l1.11,7.21l1.17,2.03l1.06,0.99l0.1-0.04l7.4,0.57v4.38l1.31,2.7l3.62-3.42l2.03,2.64l6.69-7.71l6.55,0.48l4.59,5.42
		l0.11,3.96l-1.79,1.79l1.69,0.89l-0.28,4.35l4.74,4.58l-0.87,4.78l-0.21,0.1l2.91,0.63l-2.06,6.7l-1.49,1.38l-0.09,1.99l2.95-1.96
		l0.85-3.72l4.92-3l6.62,6.19l4.84,0.14l4.01,4.55l1.88,5.97l0.49,0.5l3.66-0.95l7.59,4.65l-0.74,3.89l4.84,6.09l0.74-0.66h3.46
		l0.26-0.92l6.23-0.41l1.04,1.73l6.67,0.34l0.48,2.27l0.39-0.08l0.08-0.9l4.27-2.75l6.89,0.79l3.86-4.44l2.43-0.13l0.37-0.75
		l8.88-1.33l5.3,3.94l4.91,1.43l0.5,2.58l1.2-3.12l-0.5-7.57l2.23-2.23l0.55-4.14l1.95-1.7v-2.71l-3.87-4.56l-0.08-6l3.53-3.33
		l1.82-9.89l11.21-9.45l-0.12-2.72l8.17-11.21l6.52,8.26l3.32,1.71l4.95-0.37l3.05,4.58l-0.26,3.13l7,6.11l-0.25,5.7l-1.17,1.84
		l-1.35,7.22l-5.94,9.09L220.3,209l-0.01,0.3l2.26,2.93l-3.29,4.23l-3.77,0.3l-0.08,0.1l1.05-0.05l5.22,6.03l0.75,2.08l4.23-4.03
		l-0.15-4.67l6.35-5.94l11.24-1.48l4.26-4.89c-0.57-2.09-0.17-3.04,0-3.45c0.35-0.84,1.01-1.49,1.84-1.83
		c0.21-0.08,0.76-0.34,1.42-0.64l-0.9-3.1l2.38-6.98l1.08-3.77l7.86-1.64l1.97,5.03l4.88,3.72l0.25,0.01l0.32-1.58l6,0.43l2.01-1.05
		l2.69-6.74l4.27-2.29c1.34-2.9,2.22-3.96,3.19-4.42c-0.55-0.39-0.93-0.9-1.15-1.56c-0.25-0.46-1.06-1.7-1.82-2.82l-3.79-2.27
		l6.1-5.16l5.65,0.47l5.1-3.19l5.8,1.71l0.18,1.94l3.02,1.36l6.05-3.42l3.09-4.4l3.15-0.83l2.94-2.85l-0.79-4.45l5.55-4.17l2.9,0.58
		l2.06-1.73l-0.48-1.67l2.93-3.86l-0.25-1.18l-1.89-1.46l-2.71-10.64l4.66-3.35l0.81-2.26l-0.97-11.52l0.89-0.78l-0.79-2.62
		l-2.29-0.7l-5.51-3.39l-0.14-1.51l-0.04,0.01l-5.38-2.24l-0.87-5.12l7.22-7.91l4.9,0.08l9.34,5.34l6.9,9.85l0.47,5.41l1.54,2.5
		l3.09-0.07l6.08-4.33l6.37-2.69l-0.67-7.54l2.5-1.87l-1.74-1.74l0.66-6.62l3.79-2.4l0.22-1.73l2.89-2.51l0.52-3.82l1.02-0.17
		l-0.84-0.4l-0.36-5.02l2.45-2.07l-2.58-4.3l0.86-3.17l-0.67-0.4l-0.56-10.55l2.47-1.43v-4.18l-3.13-2.13l-1.29-5.16l2.63-1.76
		l0.32-1.45l-1.05-2.23l1.17-5.55l6.01-0.5l2.31,6.31l5.15,3.24h6.82l0.25,0.49l2.32-0.69l4.02-3.49l2.3-0.07l3.87-2.81v-6.51
		l2.71-4.27l-0.08-4.43l9.66-0.71l1.35,4.72l0.95-1.03h1.53l0.15-3.63l1.69-0.73l0.53-6.71l7.61-0.2l2.44,2.77l9.23,0.03l0.18-1.42
		h5.18l1.6,1.09l1.43-0.45l7.69,4.09l12.49,1.06L472,17.11l-3.81,4.55l-1.73,8.47l-6.23,8.9l-1.3,6.36l2.25,2.98l-6.1,7.33
		l-5.82,3.09h-2.3l0.1,3.2l-4.45,3.53l-0.32,2.24l2.28,1.9L445,74.4l-1.65,0.96l0.62,4.44l-1.89,2.58l-0.5,2.97l2.02,6.92
		l-1.32,9.51l-4.04-1.44l-3.55,2.48l-0.9,4.52l-2.58,3.69l-2.53-0.68l-3.3,3.3l-7.07,1.65l-1.89,1.36v4.66l-5.27,5.13l-0.15,3.95
		l-5.59,4.43l-4.62,2.03l-0.88,0.1l-1.25,1.36l0.25,6.52l-1.17,0.88l-0.49,5.72l-0.81,0.68l2.29,1.34l0.25,3.21l1.28,0.74l1.22,5.86
		l-1.5,1.55l0.04,0.03h5.09l0.73,1.65l3.46,1.07l1.54,5.38l-2.64,4.62l-4.55,1.73l0.15,1.95l1.72,0.86l0.49,5.92l-2.94,3.32v4.92
		l-3.13,2.08l2.15,3.92l-4.61,2.84l-5.34,0.61l-3.53,2.48l0.73,0.23l0.68,0.97l6.88,0.84l0.66,3.3l2.82,1.69l1.12,0.29l2.61-1.74
		l2.35,2.82l2.29,0.6l3.06,3.41l2.96,0.55l1.78,3.92l-0.34,0.91l2.94,0.12l2.06,6.91l2.28,1.71l0.29,4.08l-4.19,6.59l-1.31-0.22
		l0.52,8.35l-3.24,0.86l0.07,0.04l1.13,5.93l-1.62,1.03l0.39,10.1l-1.89,0.7l-0.37,1.62l-8.16,2.81l-1.71-3.98l-2.56-0.96
		l-3.45-4.41l0.11-1.64l-0.19-0.19l-3.56,0.19l0.02,0.22l-3.82,5.58l-2.27,0.45l-4.85,4.71v2.23l-2.76,4.91l-2.68,0.67l-0.18,0.2
		v2.93l-4.86,2.19l-2.68,4.01l0.49,0.62l-5.27,7.9l-1.59-2.38l-5.51,1.14l-0.69,0.5l-1.01,4.63l-6.81,4l-0.94,2.5h-6.62l-4.47-4.47
		v-2.5l-1.66-1.05l-3.33-0.25l-3.55-5.92v-1.98l-1.95-1.68v0.96l-4.55,1.87l-2.99,3.2l-4,0.57l-0.16,2.45l-1.92,2.88l0.87,2.32
		l-0.41,4.13l-2.49,1.5l-3.74,7.32v3.72l-4.4,2.55l-1.89,3.78h1.92l0.65,3.6l2.13,1.93l1.94-0.78l4.85,4.41l-0.44,1.74
		c-0.47,1.87-1,4.22-1.08,4.81c-0.03,1-0.46,2.2-2.02,3.15l0.24,1.65l-2.73,3.51l-2.11,0.63l-4.69,4.84l0.29,2.87l-7.05,2.57
		l-0.74-1.83l-3.48,0.23l-0.26-0.31v1.41l-1.68,2.46l0.26,12.3l-4.82,6.96l-0.33,3.29l4.38,11.46l-3.94,3.34l-2.2-0.75l-0.49,4.36
		l-2.28,1.25l-1.15,5.17l-5.17,2.64l-1.4-1.43L269.18,419.5z M260.81,411.71l3.91,0.78l0.17-0.71l6.26-0.29l0.94-4.24l1.93-1.06
		l0.62-5.53l3.36-2.49l-1.08-2.81l-2.45-1.22v-5.68l1.76-0.74l0.16-1.61l4.6-6.64l-0.26-12.28l1.72-2.51l0-4.91l6.09-3.85l2.8,3.33
		l2.42-0.16l7.4-7.63l1.76-0.53l-0.59-4.12l2.63-0.66c0.08-0.02,0.18-0.05,0.27-0.08c0.09-0.49,0.23-1.12,0.42-1.95l-1.17,0.47
		l-6.41-5.83l-0.12-0.67h-2.47l-0.83-6.63l3.72-7.43l2.97-1.72v-1.71l5.18-10.13l1.29-0.77l-1.38-3.69l2.73-4.1l0.44-6.82l5.51-3.15
		l1.47,2.94l2.11-2.26l2.04-0.84v-2.17l5.77-2.89l8.18,7.05v3.06l1.1,1.84l1.72,0.13l5.71,3.61v3.32l0.94,0.94l0.22-0.58l6.38-3.75
		l0.93-4.29l3.58-2.6l4.64-0.96l-3.21-0.8l7.59-6.07l2.14,0.15l1.84-2.75l2.9-1.3v-1.33l2.92-3.29l1.97-0.49l0.73-1.29v-3.2
		l7.95-7.71l1.61-0.32l1.22-1.79l-0.21-2.33l5.48-6.35l6.19,0.34l0.04,3.43l0.56-0.03l4.01,4.01l-0.14,2.07l1,1.28l3.38,1.27
		l0.37,0.86l0.26-1.13l0.83-0.3l-0.35-9.17l0.56-0.36l-2.14-1.26l1.51-6.63l3.58-0.95l-0.09-1.51l-1.29-0.47l-0.5-4.99l5.41-3.29
		l0.63,0.1l0.74-1.17l-1.38-1.03l-1.4-4.71l-2.21-0.09l-3.25-4.14l0.51-1.37l-3.03-0.56l-0.28-2.24l-0.88-0.98l-2.4-0.63l-0.12-0.15
		l-0.36,0.24l-4.56-1.19l-5.83-3.5l-0.33-1.65l-5.23-0.64l-1.05-1.5l-4.88-1.56l1.93-6.91l7.31-5.13l3.77-0.43l-0.13-0.23l0.78-4.41
		l2.7-1.8v-3.98l2.75-3.1l0-0.01l-1.74-0.87l-0.29-3.8l-2.21-2.21l3.52-4.48l4.96-1.89l0.24-0.42l-2.83-0.87l-0.26-0.58h-3.56
		l-3.67-3.43v-5.14l0.97-0.97l-0.02-0.07l-1.69-0.98l-0.25-3.22l-4.29-2.51l1.59-5.1l1.2-1l0.5-5.9l0.47-0.36l-1.09-0.4v-4.38
		l5.62-6.13l2.2-0.26l3.09-1.36l2.82-2.24l0.14-3.59l5.18-5.03v-5.2l5.36-3.86l6.57-1.54l4.54-4.54l1.45,0.39l0.95-4.76l8.06-5.64
		l0.02,0.01l0.13-0.93l-2.04-7.01l0.96-5.73l1.3-1.77l-0.83-6.01l0.82-0.48l-1.8-1.5l1.13-7.92l3.96-3.14l-0.19-6.37h6.99l3.46-1.84
		l2.3-2.76l-1.02-1.34l2.1-10.24l6.23-8.9l1.78-8.73l3.77-4.51l0.08-0.41l-7.11-0.6l-6.55-3.49L451,10.53l-0.69-0.47l-0.03,0.22
		l-17.22-0.06l-1.83-2.08l-0.34,4.32l-1.54,0.66l-0.22,5.61h-4.66l-1.53,1.66h-6.4l-1.06-3.7l-2.23,3.52v7.83l-7.84,5.69l-2.01,0.06
		l-3.38,2.94l-2.72,0.81l-3.91,4.81l-2.52-4.79h-4.93l-6.43-4.05l-0.42,1.87l-0.4,0.27l2.86,1.94v10.82l-2.28,1.32l0.19,3.7
		l1.83,1.1l-1.39,5.08l2.51,4.19l-0.56,3.94l-0.97,0.82l2.4,1.14l-3.22,7.8l-0.96,0.16l-0.23,1.68l-2.86,2.49l-0.28,2.27l-3.71,2.35
		l-0.09,0.88l1.81,1.81l-0.27,5.11l-2.29,1.71l0.22,2.44l3.49,2.09l-4.91,6.22l-3.08-0.05l-4.75,2.01l-7.05,5.01l-8.37,0.2
		l-4.1-6.65l-0.45-5.22l-5.21-7.44l-6.84-3.91l-0.65-0.01l-2.7,2.96l4.54-0.85l0.46,5.09l2.29,1.41l4.62,1.41l2.82,9.39l-1.51,1.32
		l0.83,9.8l-1.89,5.24l-2.85,2.05l1.19,4.67l2.01,1.55l1.26,6.03l-2.77,3.65l0.72,2.53l-7.25,6.08l-3.1-0.62l-0.45,0.34l0.71,3.96
		l-6.37,6.16l-2.55,0.67l-2.61,3.71l-9.87,5.58l-8.99-4.05l-0.07-0.76l-3.86,2.41l-2.96-0.25c0.12,0.19,0.23,0.37,0.32,0.53
		c0.58,0.1,1.4,0.2,2.13,0.26l2.89,0.22l-0.37,8.68l-2.29,0.48c-0.96,0.2-2.25,0.47-3.14,0.66c-0.35,0.63-0.84,1.63-1.18,2.41
		l-0.42,0.95l-4.15,2.22l-2.71,6.77l-5.49,2.86l-2.41-0.17l-0.28,1.42l-7.26-0.29l-7.73-5.89l-0.4-1.01l-1.63,4.77l1.8,6.19
		l-2.3,1.1c-0.28,0.13-1.15,0.54-2.03,0.96c0.02,0.04,0.03,0.09,0.05,0.13l0.73,1.73l-8.13,9.32l-11.58,1.52l-2.96,2.77l0.15,4.64
		l-8.33,7.93l-6.37-0.91l-1.63-4.47l-2.58-2.98l-3.66,0.18l-2.53-6.14l4.75-6.01l1.82-0.15l0.27-7.41l5.1-0.39l3.67-5.62l1.35-7.19
		l0.93-1.46l0.05-1.21l-7.11-6.2l0.33-3.99l-3.1,0.23l-5.99-3.09l-2.41-3.07l-2.28,3.12l0.16,3.57l-11.82,9.97l-1.79,9.71
		l-3.04,2.87l0.02,1.21l3.9,4.59v7.65l-2.3,2l-0.52,3.9l-1.74,1.74l0.41,6.17l-3.06,7.96l-8.71,2.58l-1.2-6.18l-2.42-0.71
		l-4.17-3.09l-3.34,0.5l-0.54,1.08l-3.37,0.18l-4.85,5.58l-5.86,1.35l-0.66-2.85l-0.8-0.09l0,0l-0.22,2.46l-10.61,2.06l-0.74-3.53
		l-5.25-0.27l-0.13-0.22h-5.07l-3.68,3.29l-5.31-3.1l0.2-3.14l-5.49-6.9l0.48-2.52l-1.88-1.15l-4.59,1.19l-3.9-4.04l-1.93-6.11
		l-1.45-1.64l-4.5-0.13l-4.14-3.87l-0.49,2.14l-9.34,6.2l-5.07-4.87l0.35-7.77l1.11-1.02l-0.6-0.13l-2.4-7.52l2.11-0.98l-3.52-3.4
		l0.21-3.25l-1.26-0.67l-0.91-5.49l2.12-2.12l-1.26-1.49l-1.04-0.08l-6.86,7.89l-4.79,0.34l-0.35-0.45l-0.99,0.94l-5.55-0.18
		l-3.68-7.57v-0.2l-0.54-0.04l-2.34,0.88l-4.43-4.14l-2.19-3.78l-0.72-4.7l-0.95-0.32l-2.85-3.62l-0.17-5.85l-4.46-2.87l-1.73-4.19
		l-2.45,4.08l-2.85,10.49l-3.58,2.1l-0.13,3.03l6.51,3.23l0.61,5.21l-2.76,3.49v1.86l4.06,4.71l-1.9,7.02l-5.02-0.06l-2.18,1.9
		l6.58,4.92l-6.05,7.37l-3.22,1.41l-3.84,5.83l-0.14,9.95l0.96,0.19l0.08,0.45l4.46-0.57l2.13,1.92l0.51-0.75l4.81-0.61l1.37-3.22
		l5.27-2.68l5.29,0.34l0.98,2.4l2.58,0.78h3.95l1.04,1.95l1.34,0.1l2.86-2.92l4.31-0.43l1.26-3.08l4.08-2.97l0.25-4.05h6.02
		l4.37,6.32l0.11,0.72l3.93,0.73l-3.05,5.09l0.47,0.74l2.92,0.75l0.38,6.66l-2.65,1.87l-0.17,0.52l0.55,0.72h4.19l0.51,5.68
		l-1.12,1.53l-0.24,3.64l-3.1,0.99l-0.98,2.89l0.15,0.03l0.6,7.69l0.56,0.83l2.35-0.46l6.67,2.83l-0.53,9.38l0.54-0.37h9.62
		l-0.28,4.52l2.98,3.14l3.26,0.63v-0.95l4.77-3.89l5.95,1.82l-1.53,5.45l0.66,2.21l3.14,3.01l0.71-0.51l6.36,1.54L118,288h2.02
		l0.03,0.18l3.18-5.87l4.2-0.2l4.1-2.96l1.35,0.14l0.32-2.19l1.19-0.45l0.14-1.56l-1.28-0.65l-0.82-8.36l6.17-4.2l1.8,3.37l1.3,0.15
		l5.53-5.96h3.55l0.74-1.97l8.8-1.56l0.31,8.63l-1.51,3.24l0.39,2l4.75,3.39l0.44-0.84h5.44l1.16,4.53l5.62,2.07l1.42,3.62
		l5.71,3.49h7.4l3.04,6.65l-2.08,1.27l0.93,7.92l-0.01,0.01h6.81v4.55l3.68,0.81l0.17,8.02l1.3,0.44l0.57,5.8l-1.95,0.8l-0.14,2.18
		l1.85,3.25l3.99,1.07l0.5,11.27l2.08,0.96l-1.28,12.05l-4.98,0.72l-0.95,0.69l5.09,3.24l-5.04,3.16l-0.73,3.57l-4.55,4.64
		l1.59,0.41l0.48,3.74l2.87,0.65l0.31-0.75l4.99-0.28l5.65,0.46l1.21,1.69h5.52l3.71,3.03l-0.23,2.15l1.51,2.67l3.3,1.68l1.35,5.04
		l-0.19,0.14l0.88,0.99l3.7,0.51l4.69,6.21l-0.3,3.24l6.94-1.5l7.19,2.45v8.23H260L260.81,411.71z M311.01,347.7
		c0,0.02,0,0.04,0,0.06C311.01,347.74,311.01,347.72,311.01,347.7z M286.52,174.12C286.52,174.12,286.52,174.12,286.52,174.12
		L286.52,174.12z M286.4,173.76C286.4,173.76,286.4,173.76,286.4,173.76C286.4,173.76,286.4,173.76,286.4,173.76z"/>
</g>
</svg>
