<?xml version="1.0" encoding="utf-8"?>
<!-- Generator: Adobe Illustrator 23.0.2, SVG Export Plug-In . SVG Version: 6.00 Build 0)  -->
<svg version="1.1" id="Capa_1" xmlns="http://www.w3.org/2000/svg" xmlns:xlink="http://www.w3.org/1999/xlink" x="0px" y="0px"
	 viewBox="0 0 640 640" style="enable-background:new 0 0 640 640;" xml:space="preserve">
<style type="text/css">
	.st0{fill:#4DCC89;}
</style>
<path class="st0" d="M613.9,241.2L613.9,241.2c-21.5-80.1-55-153.9-98.1-219.7C508,9.5,494.9,2,480.6,1.2
	C402-3.2,321.4,4.6,241.3,26.1l0,0c-80.1,21.5-153.9,55-219.7,98.1C9.5,132,2,145.1,1.2,159.4C-3.2,238,4.6,318.6,26.1,398.7l0,0
	c21.5,80.2,55,153.9,98.1,219.7c7.8,12,20.9,19.6,35.3,20.4c78.6,4.4,159.2-3.5,239.3-24.9l-9.8-36.7
	C318.8,596,248.2,602.8,179.5,599c-12.5-0.7-24-7.3-30.9-17.8c-37.7-57.6-67-122.1-85.8-192.3l0,0C44,318.8,37.2,248.2,41,179.5
	c0.7-12.5,7.3-24,17.8-30.9c57.6-37.7,122.1-67,192.3-85.8l0,0C321.2,44,391.7,37.2,460.5,41c12.5,0.7,24,7.3,30.9,17.8
	c37.7,57.6,67,122.1,85.8,192.3l0,0c18.8,70.1,25.6,140.6,21.8,209.4c-0.7,12.5-7.3,24-17.8,30.9c-57.6,37.7-122.1,67-192.3,85.8
	l9.8,36.7c80.1-21.5,153.9-55,219.7-98.1c12-7.8,19.6-20.9,20.4-35.3C643.2,402,635.4,321.4,613.9,241.2z"/>
</svg>
