<?xml version="1.0" encoding="utf-8"?>
<!-- Generator: Adobe Illustrator 23.0.2, SVG Export Plug-In . SVG Version: 6.00 Build 0)  -->
<svg version="1.1" id="Capa_1" xmlns="http://www.w3.org/2000/svg" xmlns:xlink="http://www.w3.org/1999/xlink" x="0px" y="0px"
	 viewBox="0 0 640 640" style="enable-background:new 0 0 640 640;" xml:space="preserve">
<style type="text/css">
	.st0{fill:#d43551;}
</style>
<path class="st0" d="M613.9,241.2c-21.5-80.1-55-153.9-98.1-219.7C508,9.5,494.9,2,480.6,1.2C402-3.2,321.4,4.6,241.2,26.1
	s-153.9,55-219.7,98.1C9.5,132,2,145.1,1.2,159.4C-3.2,238,4.6,318.6,26.1,398.8s55,153.9,98.1,219.7c7.9,12,20.9,19.6,35.3,20.4
	c78.6,4.4,159.2-3.5,239.3-24.9s153.9-55,219.7-98.1c12-7.9,19.6-20.9,20.4-35.3C643.2,402,635.4,321.4,613.9,241.2z"/>
</svg>
