<?xml version="1.0" standalone="no"?>
<!DOCTYPE svg PUBLIC "-//W3C//DTD SVG 20010904//EN"
 "http://www.w3.org/TR/2001/REC-SVG-20010904/DTD/svg10.dtd">
<svg version="1.0" xmlns="http://www.w3.org/2000/svg"
 width="700.000000pt" height="700.000000pt" viewBox="0 0 700.000000 700.000000"
 preserveAspectRatio="xMidYMid meet">
<metadata>
Created by potrace 1.11, written by Peter Selinger 2001-2013
</metadata>
<g transform="translate(0.000000,700.000000) scale(0.100000,-0.100000)"
fill="#000000" stroke="none">
<path d="M6259 6558 c-4 -60 -10 -84 -23 -94 -9 -6 -13 -14 -10 -17 8 -8 -14
-47 -27 -47 -5 0 -15 14 -21 31 l-10 30 -67 -5 c-36 -2 -69 -5 -73 -5 -4 -1
-5 -13 -2 -27 3 -16 -4 -40 -17 -63 -12 -20 -22 -56 -23 -83 -3 -50 -32 -87
-69 -88 -10 0 -35 -13 -55 -30 -34 -27 -42 -29 -103 -26 -86 4 -133 33 -151
94 -12 42 -13 42 -58 42 l-47 0 -10 -43 c-6 -29 -6 -51 1 -66 8 -19 6 -26 -13
-40 -19 -15 -22 -23 -16 -55 5 -23 17 -43 31 -53 31 -20 34 -77 5 -93 -14 -7
-18 -18 -16 -37 2 -16 5 -64 6 -108 1 -48 7 -89 15 -102 14 -22 10 -53 -7 -53
-5 0 -8 -27 -8 -61 1 -48 -3 -66 -20 -87 -12 -15 -25 -36 -30 -47 -5 -11 -20
-26 -34 -34 -19 -10 -26 -23 -30 -60 -3 -25 -1 -52 5 -59 8 -9 6 -17 -5 -30
-13 -14 -15 -31 -11 -72 l5 -55 -48 -19 c-26 -11 -68 -34 -93 -51 -78 -53
-102 -45 -114 42 -3 28 -22 67 -53 112 -39 57 -61 77 -119 110 -102 59 -134
57 -197 -16 -42 -47 -48 -59 -45 -91 3 -32 9 -39 46 -56 23 -11 42 -24 42 -30
0 -11 69 -58 101 -69 12 -4 16 -22 17 -83 1 -44 4 -90 7 -104 7 -32 -12 -78
-35 -85 -39 -12 -43 -30 -25 -107 10 -40 26 -82 37 -94 18 -20 18 -21 -2 -46
-11 -15 -20 -35 -20 -47 0 -24 -29 -42 -56 -35 -12 3 -33 -7 -57 -27 -34 -28
-38 -36 -33 -64 5 -25 1 -36 -16 -52 -13 -11 -32 -24 -44 -27 -12 -4 -35 -24
-52 -45 -40 -50 -96 -77 -128 -62 -13 6 -24 17 -24 24 0 8 -19 18 -45 24 -40
9 -48 8 -78 -13 -25 -17 -43 -21 -76 -18 -39 4 -48 0 -85 -33 -22 -20 -42 -39
-44 -42 -1 -4 10 -12 26 -18 15 -7 35 -26 45 -42 17 -28 16 -31 -4 -66 -12
-19 -35 -43 -51 -51 -19 -10 -37 -33 -53 -69 -25 -59 -46 -71 -104 -62 -17 3
-31 1 -31 -4 0 -35 -74 25 -96 77 -12 29 -19 35 -37 31 -12 -3 -38 -9 -57 -12
-34 -6 -37 -9 -60 -83 -14 -42 -24 -88 -22 -101 2 -16 -4 -30 -17 -41 -12 -8
-23 -30 -26 -50 -2 -21 -16 -46 -37 -66 -29 -29 -42 -34 -103 -39 -81 -8 -79
-7 -135 -59 -35 -31 -43 -45 -44 -75 -1 -28 -8 -44 -31 -63 -27 -24 -30 -25
-40 -8 -5 10 -25 37 -43 59 -30 37 -32 41 -14 41 11 0 32 15 46 32 22 29 23
34 11 49 -19 20 -19 29 0 29 9 0 35 31 60 68 44 69 72 153 82 243 5 45 4 47
-47 89 -36 30 -50 49 -48 64 1 12 -8 38 -21 59 -21 34 -26 37 -57 33 -48 -8
-77 9 -130 76 -25 32 -50 58 -55 56 -19 -7 -119 -153 -119 -174 0 -15 -16 -35
-47 -61 -76 -60 -123 -110 -123 -130 0 -43 -29 -125 -49 -139 -16 -12 -21 -25
-21 -63 0 -39 6 -55 30 -82 32 -36 39 -73 16 -82 -8 -3 -17 -24 -21 -46 -3
-21 -13 -42 -21 -45 -12 -5 -15 -21 -12 -75 3 -74 -4 -94 -25 -69 -6 9 -25 19
-41 22 -17 4 -46 20 -65 35 -38 29 -71 31 -151 11 -19 -5 -38 -8 -42 -7 -4 1
-24 -15 -46 -36 -36 -35 -41 -37 -84 -31 -35 5 -53 2 -77 -12 -17 -10 -31 -23
-31 -28 0 -5 -6 -2 -13 7 -7 10 -30 18 -55 21 -23 2 -48 9 -56 15 -13 11 -75
10 -106 -2 -50 -18 -59 -15 -94 30 -27 35 -34 51 -30 73 5 24 0 31 -47 60 -41
25 -60 31 -86 27 -32 -6 -33 -4 -44 38 -16 65 -66 118 -114 121 -30 3 -49 13
-84 48 l-46 44 -37 -21 c-23 -14 -40 -32 -43 -48 -3 -15 -15 -35 -26 -45 -18
-16 -19 -16 -19 4 0 12 4 22 10 22 5 0 16 23 25 52 18 62 18 58 1 58 -19 0
-25 20 -15 48 7 18 2 30 -26 61 -23 25 -35 48 -35 68 0 16 -5 34 -11 40 -8 8
-8 13 0 17 6 4 11 24 11 44 -1 27 -10 47 -33 74 -28 31 -40 37 -83 41 l-51 4
-44 -53 c-24 -30 -47 -54 -50 -54 -4 0 -12 7 -19 15 -12 14 -16 13 -37 -7 -29
-27 -45 -15 -47 35 0 20 -3 37 -6 40 -3 3 -30 7 -60 11 -30 3 -56 6 -56 6 -10
2 -32 81 -33 118 -1 14 -11 27 -26 34 -29 13 -33 51 -10 82 13 17 11 22 -12
53 -20 26 -32 34 -49 30 -13 -2 -27 -1 -32 2 -5 3 -12 41 -15 84 -3 43 -8 81
-11 84 -3 3 -27 -3 -55 -12 -45 -17 -53 -25 -95 -95 -49 -83 -47 -79 -70 -161
-13 -47 -21 -59 -46 -69 -22 -9 -30 -19 -31 -39 0 -14 -2 -49 -3 -78 l-2 -51
48 -23 c26 -12 48 -25 48 -28 0 -3 -7 -15 -15 -25 -22 -29 -19 -98 6 -127 16
-18 17 -25 6 -29 -7 -3 -34 -22 -60 -44 -59 -48 -64 -90 -17 -133 17 -14 30
-30 30 -35 0 -4 -15 -15 -33 -24 -22 -10 -48 -39 -75 -82 -39 -61 -42 -71 -42
-134 0 -51 -4 -70 -15 -74 -31 -12 -28 -44 9 -78 20 -18 36 -38 36 -44 0 -6
19 -21 42 -33 40 -20 42 -20 55 -3 7 10 13 22 13 27 0 5 6 4 14 -2 23 -19 79
-18 98 1 10 10 33 18 51 18 30 0 36 5 52 40 16 36 45 55 45 31 0 -6 26 -18 58
-28 31 -9 60 -22 64 -27 4 -6 30 -12 59 -14 44 -3 55 0 78 22 17 16 40 26 65
28 33 2 41 7 55 37 18 39 61 82 74 74 5 -3 7 -19 6 -37 -2 -20 6 -46 20 -69
22 -36 22 -39 7 -84 l-16 -46 36 -44 c19 -23 30 -43 24 -43 -6 0 -19 -20 -30
-44 -10 -24 -23 -47 -29 -50 -14 -9 -14 -93 0 -98 6 -2 13 -21 16 -42 3 -21
17 -55 31 -76 24 -33 32 -37 67 -36 40 1 40 1 37 -33 -1 -19 -7 -40 -12 -46
-6 -7 -7 -32 -4 -56 5 -38 12 -48 53 -76 l46 -33 13 33 c25 58 30 59 70 14 50
-57 74 -76 93 -77 9 0 27 -9 40 -21 13 -11 35 -19 49 -18 43 2 46 1 106 -55
52 -48 61 -53 75 -40 14 12 18 12 32 -4 10 -10 17 -23 17 -29 0 -6 20 -19 45
-29 l46 -17 35 34 c21 20 34 42 33 54 -4 35 11 65 33 65 11 0 33 9 49 21 20
14 40 20 60 17 26 -4 32 -1 40 21 5 14 14 36 21 48 10 20 14 50 17 121 1 18 5
21 25 16 19 -4 31 4 65 42 30 34 49 48 71 49 16 1 27 -2 24 -7 -3 -5 -3 -31 1
-58 6 -43 12 -54 45 -78 21 -15 41 -34 43 -42 2 -8 46 -31 97 -50 66 -25 95
-41 103 -58 11 -24 111 -89 155 -101 23 -6 27 -13 30 -51 2 -25 7 -47 13 -50
5 -4 -4 -17 -21 -30 -37 -29 -37 -34 0 -50 17 -7 30 -20 30 -30 0 -18 73 -55
90 -45 4 2 10 -4 13 -15 3 -12 14 -20 25 -20 26 0 29 -17 26 -122 -3 -75 0
-93 18 -125 29 -51 49 -74 59 -67 5 3 9 -12 10 -33 1 -66 9 -127 17 -133 13
-9 12 -50 -1 -50 -7 0 -30 -12 -51 -26 -37 -25 -38 -27 -36 -82 3 -86 3 -89
-37 -128 -31 -31 -37 -45 -39 -83 -2 -48 7 -75 22 -69 5 1 10 -12 12 -29 2
-25 8 -33 23 -33 14 0 19 -7 19 -30 0 -16 4 -30 8 -30 36 0 129 25 135 36 11
18 51 18 67 -1 7 -9 29 -15 54 -15 38 0 43 -3 61 -37 11 -20 26 -42 32 -49 7
-7 18 -46 24 -88 l11 -75 23 15 c31 20 89 10 104 -19 7 -12 10 -43 7 -69 -5
-42 -3 -47 20 -52 13 -4 24 -11 24 -16 0 -6 22 -10 49 -10 40 0 50 3 54 20 4
15 14 20 36 20 32 0 42 -14 16 -24 -10 -4 -15 -20 -15 -51 0 -38 3 -45 20 -45
11 0 20 -7 20 -15 0 -11 12 -15 50 -15 28 0 50 -4 50 -9 0 -12 181 -45 189
-35 3 5 18 10 32 10 41 2 76 31 83 67 3 18 15 40 26 50 11 9 20 28 20 43 0 19
5 24 18 22 10 -1 30 7 46 19 l28 22 -31 82 c-17 44 -31 93 -31 107 0 15 16 51
36 81 36 52 36 56 35 142 -2 102 13 143 52 147 14 1 27 -5 31 -13 9 -25 100
15 104 46 4 26 69 99 88 99 7 0 22 13 34 30 12 16 18 30 15 30 -4 0 -1 10 7
23 8 12 22 46 31 75 l15 53 -35 35 c-23 24 -42 34 -54 31 -21 -6 -49 26 -49
55 0 10 -7 18 -14 18 -27 0 2 54 39 74 26 15 35 26 35 46 0 36 44 125 72 144
19 13 22 24 21 64 -1 26 2 56 7 67 4 11 11 28 14 37 3 10 18 20 33 24 15 4 43
20 62 36 44 38 79 52 97 37 8 -6 12 -15 9 -19 -8 -13 48 -100 65 -102 31 -3
35 -4 48 -11 6 -5 12 -16 12 -26 0 -9 15 -32 34 -50 44 -43 107 -46 140 -8 12
13 39 35 62 49 29 19 43 35 47 57 5 21 15 35 32 41 39 15 73 12 83 -6 7 -13
13 -9 33 23 13 21 35 61 49 88 19 35 39 57 68 73 26 15 42 31 42 42 0 10 9 21
19 25 22 7 61 67 61 94 0 20 72 91 93 91 6 0 26 20 42 45 23 35 36 45 58 45
19 0 27 -5 27 -17 1 -21 34 -61 73 -86 15 -9 27 -24 27 -32 0 -7 5 -17 10 -20
16 -10 109 25 134 50 21 20 23 31 19 90 -2 41 1 73 8 81 6 8 9 30 5 54 -5 36
-3 42 17 49 21 8 23 13 17 70 -4 40 -2 60 4 58 15 -5 68 83 71 116 2 18 -6 37
-20 53 -13 13 -28 45 -34 69 -8 34 -16 45 -30 45 -13 0 -23 11 -31 34 -8 26
-18 36 -40 41 -16 3 -36 17 -44 31 -9 13 -23 24 -31 24 -8 0 -25 11 -36 24
-18 21 -25 23 -45 14 -34 -16 -73 4 -80 40 -5 23 -11 28 -37 30 -52 4 -67 8
-78 19 -14 14 26 38 79 47 36 5 69 20 101 43 2 2 -2 14 -9 28 -12 22 -11 28 8
48 14 15 22 36 22 59 0 22 7 41 20 53 24 21 26 103 3 112 -24 9 -14 39 19 54
18 8 41 28 51 46 26 46 10 107 -33 122 -17 5 -30 15 -30 20 0 6 -15 11 -32 11
-33 0 -33 0 -34 52 -1 29 -6 54 -13 56 -6 2 -11 14 -11 27 0 13 -9 30 -19 37
-14 10 -17 18 -10 28 5 8 9 29 9 47 0 17 5 35 10 38 6 4 10 25 9 48 -1 23 -1
47 0 54 1 11 55 43 73 43 5 0 29 15 53 33 34 25 46 40 51 68 4 25 19 49 44 73
30 28 37 42 35 66 -3 36 16 52 85 70 24 7 57 22 72 35 15 13 35 21 45 19 22
-5 53 36 60 79 6 42 39 68 83 65 34 -3 35 -2 41 42 4 25 8 52 10 60 2 8 -3 40
-11 70 -17 67 -15 98 6 121 12 13 15 28 10 52 -5 25 -3 36 7 40 20 7 10 67
-16 94 l-20 23 39 36 c21 21 39 42 40 48 0 6 2 17 2 24 1 6 9 12 17 12 33 0
95 42 140 94 45 53 46 55 30 79 -23 36 -4 106 50 182 32 45 47 78 56 125 8 42
21 73 39 94 29 33 59 142 43 156 -4 4 -44 10 -88 14 -62 4 -94 13 -141 37 -66
33 -184 53 -184 30 0 -7 -23 -11 -65 -11 -53 0 -68 4 -82 20 -14 16 -30 20
-75 20 -39 0 -58 -4 -59 -12z m264 -113 c145 -2 154 -3 197 -28 31 -19 59 -27
93 -27 52 0 56 -6 28 -36 -28 -31 -38 -55 -46 -109 -6 -36 -22 -70 -55 -120
-48 -70 -73 -146 -74 -225 -1 -49 -49 -80 -122 -80 l-54 0 0 -48 c0 -41 -4
-51 -28 -69 -22 -16 -31 -34 -39 -78 -7 -40 -7 -60 1 -68 15 -16 19 -104 5
-128 -19 -36 -21 -104 -6 -157 l16 -51 -50 -36 c-27 -19 -53 -35 -58 -35 -4 0
-14 -20 -21 -45 -7 -24 -16 -42 -21 -39 -4 2 -25 -11 -46 -30 -23 -21 -54 -37
-78 -42 -37 -6 -124 -56 -126 -72 0 -4 -2 -21 -2 -39 -2 -22 -13 -44 -39 -70
-24 -24 -38 -48 -38 -64 0 -29 -44 -66 -89 -75 -32 -7 -95 -68 -110 -105 -4
-13 -5 -33 -1 -44 11 -32 2 -97 -20 -140 -27 -52 -25 -61 10 -82 20 -11 30
-25 30 -40 0 -13 7 -26 15 -29 10 -4 12 -10 6 -18 -5 -6 -9 -29 -7 -50 2 -41
34 -75 72 -76 12 0 34 -6 49 -14 26 -14 26 -15 7 -25 -12 -6 -26 -11 -32 -11
-14 0 -30 -16 -53 -51 -16 -23 -16 -28 -2 -39 8 -7 15 -28 15 -46 0 -24 5 -34
16 -34 13 0 12 -5 -5 -26 -12 -15 -21 -39 -21 -55 0 -17 -8 -34 -22 -43 -12
-9 -23 -26 -25 -38 -6 -40 -12 -48 -35 -48 -31 0 -127 -65 -137 -93 -5 -12
-12 -36 -15 -54 -7 -29 -5 -32 28 -43 19 -6 39 -17 45 -23 5 -7 25 -14 43 -15
18 -2 36 -9 41 -17 13 -23 88 -63 142 -75 53 -12 78 -27 69 -41 -3 -5 7 -14
21 -19 14 -5 24 -14 21 -18 -7 -12 44 -72 61 -72 7 0 18 -12 23 -27 6 -16 15
-36 21 -46 6 -11 9 -20 7 -21 -2 -2 -22 -13 -45 -26 -38 -21 -43 -28 -43 -59
0 -19 7 -42 16 -52 15 -17 14 -19 -10 -25 -30 -7 -41 -23 -50 -76 -4 -23 -3
-37 5 -40 7 -2 12 -34 14 -82 l3 -78 -31 6 c-39 8 -57 23 -57 49 0 11 -14 34
-32 50 -17 17 -32 40 -33 51 -2 33 -79 35 -112 4 -31 -29 -67 -87 -59 -95 7
-7 -23 -43 -35 -43 -19 0 -122 -109 -124 -131 -1 -13 -3 -30 -4 -36 0 -7 -6
-13 -13 -13 -16 0 -68 -51 -68 -66 0 -7 -9 -16 -20 -19 -11 -3 -25 -15 -30
-26 -6 -10 -18 -19 -27 -19 -9 0 -41 -19 -71 -41 -51 -39 -54 -43 -37 -55 18
-13 17 -14 -6 -14 -44 0 -99 -47 -99 -85 0 -14 -16 -30 -52 -52 -29 -17 -54
-31 -55 -30 -1 2 -3 15 -6 31 -3 23 -14 35 -57 58 -59 32 -70 42 -70 74 0 20
-14 35 -87 95 l-32 27 -45 -21 c-25 -11 -43 -24 -40 -29 3 -4 -9 -21 -27 -38
-31 -28 -33 -28 -46 -10 -13 18 -14 18 -53 -3 -38 -21 -40 -25 -40 -68 0 -32
-7 -57 -23 -81 -19 -27 -22 -38 -13 -57 7 -17 6 -28 -4 -44 -33 -53 -80 -146
-80 -159 0 -8 -11 -20 -24 -27 -13 -8 -35 -38 -49 -71 -22 -48 -25 -66 -19
-102 4 -23 12 -43 17 -43 13 0 133 -97 134 -108 1 -5 -8 -11 -19 -14 -15 -4
-20 -14 -20 -39 0 -19 -4 -34 -10 -34 -5 0 -33 -25 -62 -55 -65 -69 -83 -75
-114 -40 l-23 27 -43 -30 c-37 -25 -44 -36 -46 -67 -2 -21 -7 -46 -12 -56 -6
-10 -10 -58 -10 -107 0 -86 -2 -92 -35 -143 -19 -30 -40 -60 -47 -68 -7 -8
-13 -31 -13 -50 0 -27 7 -43 29 -65 l31 -28 -28 -23 c-20 -16 -30 -34 -34 -64
-3 -24 -12 -45 -19 -48 -7 -3 -16 -19 -19 -37 -6 -29 -10 -32 -48 -34 -23 -1
-49 -3 -57 -4 -36 -3 -60 3 -60 17 0 16 -8 18 -52 15 -28 -1 -28 -1 -28 59 0
61 0 61 -37 77 -42 18 -80 22 -135 11 -35 -6 -38 -5 -34 16 5 34 -58 111 -96
117 -27 4 -33 11 -45 52 -8 29 -20 49 -32 53 -26 8 -39 25 -45 60 -3 16 -16
37 -28 47 -24 19 -26 19 -74 21 -17 1 -38 8 -46 15 -17 14 -100 19 -165 10
-33 -5 -43 -3 -44 8 -3 31 -4 35 -16 42 -8 5 -1 19 23 46 19 21 34 47 34 57 0
10 17 32 39 47 l39 28 -34 23 c-27 19 -32 27 -23 37 6 8 27 14 45 14 25 0 34
4 35 18 0 9 2 24 3 32 15 78 15 130 1 137 -13 8 -19 47 -24 159 -1 15 -9 23
-31 27 -19 4 -34 17 -44 35 -13 26 -13 31 0 51 17 24 16 89 -2 108 -6 6 -10
34 -10 62 2 47 0 51 -26 56 -24 6 -28 12 -28 40 0 34 0 34 -52 37 l-52 3 -4
58 c-3 45 0 58 12 63 13 5 12 13 -9 55 l-25 49 -53 0 c-63 0 -140 42 -150 82
-4 16 -19 28 -49 39 -33 12 -44 22 -50 46 -7 26 -14 31 -43 35 -19 2 -39 0
-43 -4 -4 -4 -25 4 -46 18 -34 24 -37 29 -31 58 12 51 14 155 4 161 -16 11
-129 -17 -129 -31 0 -9 -11 -14 -28 -14 -20 0 -40 -13 -71 -44 -41 -42 -71
-51 -71 -21 0 27 -21 25 -64 -5 -38 -27 -43 -36 -40 -61 2 -16 6 -43 8 -61 3
-17 9 -34 15 -37 11 -7 -25 -71 -41 -71 -5 0 -22 -9 -37 -19 -15 -11 -40 -21
-56 -23 -22 -2 -34 -12 -49 -40 -20 -40 -36 -45 -81 -28 -14 5 -39 11 -56 12
-20 2 -40 13 -56 32 -25 29 -25 39 -7 103 5 18 0 23 -33 32 -54 15 -55 15 -93
-23 -37 -37 -60 -37 -98 -3 -18 17 -21 28 -17 54 6 37 7 37 -88 34 l-58 -2 1
58 c1 32 1 63 1 70 -1 13 -84 47 -116 48 -17 0 -21 8 -26 60 -7 72 -1 92 30
108 25 13 33 39 35 117 1 44 0 45 -31 48 -37 4 -42 15 -15 34 10 7 17 23 16
36 -1 12 -2 36 -3 52 -1 23 -6 30 -20 30 -30 0 -32 13 -10 50 21 33 15 49 -17
50 -6 0 -27 24 -47 53 -31 48 -39 53 -68 52 -44 -1 -59 -11 -59 -39 0 -13 -12
-31 -31 -45 -16 -12 -34 -33 -39 -47 -7 -18 -17 -24 -39 -24 -19 0 -40 -10
-55 -25 -23 -23 -26 -24 -41 -8 -9 9 -35 17 -57 19 -27 2 -46 10 -62 27 -17
19 -32 24 -57 22 -50 -3 -109 -35 -115 -62 -5 -19 -32 -31 -46 -21 -2 1 -12
-4 -24 -10 -16 -8 -24 -8 -33 1 -7 7 -31 12 -54 12 l-42 0 0 73 c0 62 4 80 27
117 15 24 36 46 47 50 22 7 106 100 106 118 0 6 -19 25 -42 43 -39 29 -41 33
-25 47 9 8 32 14 51 14 34 -2 35 0 48 52 l14 54 -30 31 c-36 38 -38 49 -11 84
14 17 20 38 18 65 -2 35 -6 41 -50 63 -56 28 -65 61 -23 84 19 10 31 31 46 84
22 77 49 136 61 136 4 0 10 -10 13 -23 4 -13 15 -30 27 -38 11 -8 26 -18 34
-24 8 -5 15 -30 17 -54 1 -34 9 -53 33 -78 17 -18 30 -34 28 -36 -12 -11 24
-86 59 -124 32 -35 46 -43 64 -39 19 5 26 -1 51 -51 31 -64 34 -66 136 -56 62
6 66 9 128 82 32 37 40 42 53 31 14 -12 14 -15 0 -30 -17 -18 -13 -76 6 -94 5
-6 9 -21 9 -35 0 -14 10 -35 21 -48 17 -17 19 -26 11 -36 -9 -10 -7 -26 7 -65
10 -28 17 -53 15 -55 -3 -2 -6 -31 -8 -64 -4 -59 -3 -62 34 -98 l38 -37 71 48
c39 26 71 54 71 62 0 11 11 6 33 -17 19 -17 38 -31 43 -30 5 1 21 1 36 0 23
-1 30 -9 48 -60 12 -33 34 -71 49 -85 24 -23 31 -25 61 -16 38 11 63 -2 58
-31 -2 -10 14 -38 35 -63 21 -26 37 -56 37 -70 0 -19 10 -32 38 -49 l37 -24
32 24 c27 21 41 24 95 22 77 -3 88 -6 88 -28 0 -28 7 -29 83 -13 69 14 92 26
81 44 -3 4 -1 8 4 8 5 0 12 -9 15 -21 5 -17 11 -19 44 -14 27 5 49 19 80 51
28 30 49 44 67 44 14 0 26 5 26 10 0 15 66 12 79 -4 6 -8 25 -19 41 -26 24
-10 31 -20 36 -51 4 -22 10 -41 14 -44 3 -2 33 4 65 13 57 17 60 20 82 72 12
30 22 77 23 103 0 27 4 56 10 66 5 10 11 31 14 46 3 16 12 33 21 37 11 7 15
26 15 72 0 51 -4 66 -21 82 -38 35 -42 52 -15 75 14 12 26 37 31 62 4 23 9 56
12 72 5 30 23 50 130 137 39 32 52 49 51 68 -3 48 35 91 48 55 8 -21 92 -65
124 -65 24 0 27 -3 25 -30 -2 -24 6 -37 50 -74 l52 -45 -20 -77 c-26 -106 -58
-152 -105 -156 l-37 -3 -5 -55 c-3 -31 -10 -55 -16 -55 -6 0 -27 -19 -47 -42
-32 -39 -34 -45 -23 -75 17 -49 25 -58 51 -58 26 0 75 -45 75 -70 0 -29 18
-42 65 -47 47 -5 49 -4 106 53 48 48 59 64 59 91 0 58 31 76 145 88 58 6 62 8
123 73 39 42 61 73 59 84 -3 11 5 20 24 28 33 14 33 15 18 73 -7 30 -7 51 0
70 l11 28 60 -46 c53 -41 68 -47 115 -50 39 -2 55 1 59 12 3 8 10 11 16 8 6
-3 30 3 54 15 36 18 47 32 66 76 12 30 27 54 32 54 6 0 28 18 48 40 21 23 50
43 66 46 16 3 30 7 31 8 2 2 5 31 7 65 4 64 3 66 -44 62 -8 -1 2 8 23 19 l38
21 71 -33 71 -32 74 39 c43 23 81 52 91 68 9 15 25 30 37 33 11 3 41 27 67 52
41 40 47 50 42 77 -4 30 -3 32 21 28 33 -7 136 73 129 100 -3 9 4 32 15 50 18
29 19 39 10 73 -6 21 -17 46 -25 55 -8 9 -19 30 -24 48 -7 27 -6 33 14 46 33
22 49 81 44 161 -3 38 -1 76 4 84 7 11 4 36 -9 80 -18 61 -21 66 -61 80 -52
19 -60 27 -65 65 -3 26 -8 30 -35 30 l-31 0 21 22 21 23 36 -22 c20 -12 44
-27 55 -34 32 -21 83 -107 90 -152 5 -34 39 -104 63 -132 2 -2 29 -5 61 -5 51
-1 63 3 117 40 73 49 107 65 144 65 21 0 35 10 60 46 32 43 32 46 15 59 -11 8
-22 15 -26 15 -15 0 -8 39 9 48 22 13 28 85 8 102 -21 17 -19 23 15 43 17 10
30 26 30 36 0 10 11 26 25 35 14 9 25 23 25 30 0 8 4 16 8 18 4 2 17 26 29 55
18 44 19 54 7 63 -8 8 -11 18 -6 29 12 24 7 57 -12 86 -14 22 -15 32 -6 61 9
26 9 38 0 49 -21 25 -22 63 -2 69 16 5 18 17 18 85 -1 60 -5 83 -18 98 -19 20
-24 43 -10 43 4 0 25 -12 46 -26 23 -16 54 -27 79 -28 33 -2 42 -7 55 -32 8
-16 16 -31 18 -33 1 -2 17 13 34 33 18 20 37 36 43 36 5 0 25 11 43 25 18 14
38 25 44 25 7 0 38 19 71 41 l59 42 0 61 c1 77 30 126 44 73 5 -21 10 -23 53
-20 26 2 53 9 61 15 8 7 27 11 43 10 16 -1 30 2 30 8 1 5 2 24 3 42 0 17 7 33
14 36 6 2 12 17 12 34 0 26 2 29 15 18 11 -9 62 -14 168 -15z"/>
</g>
</svg>
