<?xml version="1.0" standalone="no"?>
<!DOCTYPE svg PUBLIC "-//W3C//DTD SVG 20010904//EN"
 "http://www.w3.org/TR/2001/REC-SVG-20010904/DTD/svg10.dtd">
<svg version="1.0" xmlns="http://www.w3.org/2000/svg"
 width="700.000000pt" height="700.000000pt" viewBox="0 0 700.000000 700.000000"
 preserveAspectRatio="xMidYMid meet">
<metadata>
Created by potrace 1.11, written by Peter Selinger 2001-2013
</metadata>
<g transform="translate(0.000000,700.000000) scale(0.100000,-0.100000)"
fill="#000000" stroke="none">
<path d="M4448 6995 c-1 -2 -61 -6 -133 -10 -71 -3 -143 -8 -158 -10 -15 -2
-66 -6 -112 -10 -47 -3 -93 -8 -102 -9 -10 -2 -47 -7 -83 -10 -78 -8 -117 -13
-173 -22 -23 -4 -49 -6 -57 -6 -8 0 -33 -4 -55 -8 -22 -5 -65 -12 -95 -15 -30
-4 -57 -8 -60 -10 -3 -2 -26 -6 -50 -10 -52 -7 -315 -59 -410 -81 -700 -162
-1320 -385 -1930 -694 -199 -101 -225 -115 -228 -122 -2 -5 -8 -8 -13 -8 -24
0 -483 -277 -576 -347 -96 -72 -156 -163 -189 -284 -27 -101 -26 -864 2 -1186
2 -26 6 -77 9 -113 10 -125 16 -195 20 -210 2 -8 7 -40 10 -70 10 -84 43 -303
65 -420 11 -58 22 -121 25 -140 10 -58 75 -347 107 -470 117 -458 284 -934
480 -1370 125 -277 397 -787 499 -937 16 -23 29 -44 29 -47 0 -12 121 -185
151 -215 49 -49 144 -109 203 -127 73 -22 217 -29 581 -29 274 0 466 6 639 20
75 6 191 17 221 20 17 2 51 7 78 10 26 3 68 8 95 11 54 6 304 43 342 50 14 2
41 7 60 10 19 3 53 9 75 14 22 5 56 12 75 15 151 25 484 106 720 174 213 61
596 188 665 221 11 5 61 25 110 43 409 156 899 404 1343 680 194 121 258 180
306 280 57 121 60 147 60 647 1 275 -7 546 -19 640 -2 19 -6 69 -10 110 -7 93
-9 111 -51 440 -4 35 -49 304 -59 350 -76 382 -136 623 -237 955 -16 55 -34
109 -38 120 -5 11 -21 56 -35 100 -157 463 -375 946 -636 1412 -45 81 -204
342 -255 420 -92 139 -197 208 -364 238 -35 6 -835 16 -842 10z m493 -439
c167 -7 243 -28 326 -90 66 -50 71 -55 136 -154 49 -74 49 -74 37 -149 0 -2
-5 -3 -11 -3 -35 0 -71 -99 -51 -137 7 -12 6 -26 -5 -47 -9 -17 -13 -41 -9
-58 5 -27 2 -31 -37 -48 -23 -11 -56 -35 -72 -55 -42 -51 -105 -83 -105 -52 0
6 -9 23 -20 37 -11 14 -20 34 -20 46 0 28 -65 151 -98 186 -14 15 -35 31 -46
34 -12 4 -29 14 -38 23 -10 9 -26 24 -37 34 -33 32 -93 33 -143 4 -80 -46 -98
-70 -98 -125 0 -44 4 -53 35 -81 20 -17 41 -28 50 -25 10 4 15 0 15 -11 0 -21
74 -95 94 -95 21 0 26 -37 12 -78 -14 -39 -13 -82 3 -153 9 -39 8 -46 -9 -59
-36 -28 -43 -140 -11 -160 7 -4 7 -19 -1 -45 -14 -48 -15 -52 -16 -92 -2 -38
-25 -54 -80 -56 -57 -3 -55 -2 -107 -122 -7 -16 -18 -43 -24 -58 -9 -24 -14
-26 -31 -17 -24 13 -73 -9 -90 -40 -6 -11 -17 -20 -25 -20 -15 0 -54 -31 -93
-74 -15 -16 -46 -50 -69 -75 -24 -25 -43 -56 -43 -68 0 -33 -15 -65 -49 -103
-17 -19 -31 -42 -31 -51 0 -9 -9 -24 -20 -34 -16 -14 -24 -15 -51 -6 -44 15
-65 14 -95 -6 -14 -9 -39 -17 -57 -18 -18 -2 -50 -6 -72 -10 -37 -6 -43 -4
-87 37 -51 46 -127 81 -155 71 -10 -4 -36 -25 -60 -47 -38 -35 -43 -46 -43
-83 0 -48 -17 -93 -36 -93 -15 0 -64 -57 -64 -74 0 -7 -11 -27 -25 -46 -14
-19 -25 -44 -25 -57 0 -22 -4 -23 -66 -23 -45 0 -75 -6 -95 -17 -28 -17 -33
-28 -55 -117 -10 -42 -54 -105 -70 -99 -7 2 -22 20 -33 39 -11 19 -29 37 -38
41 -10 3 -26 14 -35 23 -16 17 -15 21 7 76 20 50 27 58 52 59 15 1 36 5 46 9
20 10 86 123 93 162 3 15 11 39 18 53 8 14 17 59 21 99 6 68 5 74 -19 102 -13
17 -27 39 -31 50 -3 11 -11 20 -16 20 -5 0 -25 24 -44 54 -36 56 -56 70 -86
61 -18 -6 -79 22 -79 36 0 4 -15 13 -34 19 -19 6 -40 18 -46 26 -27 31 -132 0
-146 -44 -3 -9 -11 -28 -19 -42 -7 -14 -16 -39 -19 -57 -7 -30 -68 -95 -124
-133 -19 -12 -54 -95 -51 -118 5 -35 -7 -55 -51 -89 -68 -52 -78 -82 -50 -146
10 -25 30 -49 49 -60 l31 -18 -24 -47 c-13 -26 -26 -61 -29 -77 -3 -17 -9 -41
-14 -55 -5 -14 -8 -44 -6 -67 3 -24 3 -43 1 -43 -19 0 -89 44 -102 64 -9 14
-28 33 -42 42 -22 15 -30 15 -65 4 -32 -11 -47 -11 -71 -2 -62 23 -128 -29
-137 -109 -1 -4 -17 -7 -36 -7 -19 0 -54 -9 -77 -21 l-41 -20 -23 24 c-23 25
-37 28 -106 25 -21 -1 -47 5 -60 14 -23 16 -58 13 -93 -10 -32 -21 -54 5 -72
83 -18 77 -62 133 -106 133 -14 0 -29 5 -32 11 -4 6 -28 9 -54 7 l-46 -3 -3
55 c-4 74 -28 100 -92 100 -43 0 -50 4 -92 50 -33 36 -53 50 -73 50 -31 0 -85
-49 -85 -77 0 -28 -27 -97 -39 -101 -13 -4 -15 14 -2 22 4 3 14 31 20 63 11
50 10 64 -4 99 -9 23 -27 47 -41 54 -26 14 -32 49 -15 93 7 17 5 33 -5 53 -13
24 -13 38 -3 92 14 68 4 105 -31 122 -63 31 -87 36 -120 28 -33 -9 -103 -57
-126 -87 -13 -17 -87 -7 -105 15 -8 10 -10 64 -6 196 12 369 49 413 612 733
226 128 605 310 823 396 43 16 91 36 107 44 120 54 713 244 844 270 9 2 45 11
81 20 36 9 76 19 90 22 14 2 66 13 115 24 50 11 113 24 140 29 28 5 100 18
160 29 61 11 135 23 165 26 30 4 62 9 71 10 8 2 42 6 75 9 32 3 70 8 84 11 14
2 57 7 95 10 39 3 94 8 123 11 85 9 135 12 357 19 116 4 211 8 212 9 3 2 212
-2 344 -8z m609 -475 c0 -4 32 -63 71 -132 72 -125 262 -497 272 -534 6 -20
-32 -75 -51 -75 -23 0 -44 -53 -40 -101 3 -34 0 -53 -9 -61 -9 -7 -12 -21 -8
-35 6 -24 -7 -56 -32 -81 -23 -23 -15 -58 19 -87 42 -35 59 -69 52 -104 -11
-53 56 -135 116 -144 37 -6 35 -25 -4 -41 -26 -11 -37 -23 -44 -48 -5 -18 -6
-37 -2 -43 4 -5 11 -29 15 -53 5 -32 3 -49 -10 -68 -9 -14 -18 -36 -19 -48 -1
-12 -6 -28 -12 -36 -5 -8 -16 -32 -25 -53 -8 -21 -17 -37 -20 -36 -8 4 -89
-41 -108 -60 -10 -10 -26 -23 -35 -28 -9 -5 -23 -34 -30 -64 -15 -66 -5 -97
33 -105 14 -2 40 -9 57 -14 17 -6 38 -10 46 -10 9 0 25 -10 35 -23 25 -31 71
-59 102 -62 14 -1 35 -6 46 -10 35 -14 105 -76 105 -93 0 -9 14 -30 31 -46 17
-17 46 -49 65 -71 l34 -40 -28 -7 c-54 -14 -93 -86 -66 -122 16 -22 10 -37
-27 -77 -29 -31 -38 -72 -19 -84 12 -7 3 -94 -10 -109 -5 -4 -4 -21 2 -38 6
-16 8 -32 4 -35 -9 -9 -80 69 -95 105 -8 20 -30 42 -56 57 -40 24 -44 24 -83
11 -48 -17 -77 -41 -86 -73 -7 -22 -103 -125 -158 -170 -17 -14 -28 -33 -28
-47 0 -30 -20 -76 -32 -76 -5 0 -29 -21 -53 -46 -25 -25 -63 -55 -86 -67 -34
-18 -63 -54 -85 -105 -1 -2 -14 -5 -30 -8 -33 -6 -104 -44 -104 -55 0 -5 -11
-20 -25 -35 -14 -15 -25 -33 -25 -41 0 -7 -15 -22 -32 -33 -35 -21 -53 -26
-44 -12 8 14 -54 82 -75 82 -10 0 -19 3 -19 8 0 4 -10 12 -22 17 -13 6 -32 29
-42 52 -13 27 -31 47 -53 57 -19 9 -36 23 -39 31 -17 44 -126 -12 -221 -114
-58 -62 -55 -59 -101 -98 -29 -26 -34 -38 -41 -104 -1 -4 -16 -10 -34 -13 -47
-9 -107 -70 -107 -110 0 -17 7 -41 15 -53 14 -19 13 -26 -5 -69 -12 -26 -32
-58 -45 -70 -14 -13 -25 -32 -25 -44 0 -33 27 -76 62 -101 18 -13 48 -40 66
-61 19 -21 40 -38 47 -38 7 0 -2 -15 -21 -34 -19 -19 -34 -42 -34 -53 0 -10
-16 -35 -35 -57 -19 -21 -35 -42 -35 -47 0 -5 -23 2 -50 16 -65 33 -93 26
-125 -30 -14 -23 -25 -52 -25 -64 0 -11 -4 -29 -9 -39 -33 -66 -46 -120 -40
-167 3 -27 2 -54 -2 -60 -5 -5 -9 -19 -9 -31 0 -12 -8 -32 -18 -45 -60 -80
-64 -159 -10 -215 l30 -32 -31 -42 c-17 -24 -31 -53 -31 -66 0 -37 -31 -94
-52 -94 -10 0 -34 -6 -53 -14 -35 -15 -63 -9 -194 39 -11 4 -10 10 3 30 32 48
9 110 -44 120 -72 14 -148 17 -154 6 -4 -6 -14 -11 -23 -11 -9 0 -14 3 -10 6
11 12 -17 70 -51 106 -20 21 -51 43 -70 49 -24 8 -32 15 -27 27 6 17 -37 87
-72 115 -13 10 -23 25 -23 32 0 7 -11 27 -25 43 -19 23 -32 29 -57 27 -18 -1
-47 4 -64 11 -58 22 -152 26 -184 7 -28 -16 -30 -16 -50 2 -30 27 -25 68 15
125 19 27 35 54 35 59 0 5 7 14 15 21 19 16 19 51 0 76 -19 25 -19 34 1 34 9
0 32 16 50 36 30 31 34 42 34 88 0 30 -7 69 -15 89 -16 40 -14 64 11 102 16
24 16 29 1 61 -9 19 -21 35 -27 35 -5 1 -15 2 -22 3 -7 0 -15 16 -19 34 -4 18
-16 44 -28 56 -19 20 -20 24 -6 36 21 17 19 46 -5 70 -11 11 -17 26 -14 34 3
8 1 17 -5 21 -6 3 -11 21 -11 39 0 26 -8 39 -37 63 -49 39 -76 53 -107 55 -14
1 -27 7 -29 13 -5 14 0 136 6 160 9 38 -18 82 -60 95 -21 6 -66 25 -101 41
-53 24 -63 34 -69 60 -8 41 -45 66 -78 51 -22 -10 -26 -8 -42 18 -16 28 -47
47 -67 42 -4 -2 -14 5 -21 15 -9 12 -26 18 -52 18 -36 0 -38 2 -37 30 1 17 4
46 8 65 5 28 2 40 -14 57 -11 12 -20 25 -20 29 0 4 -7 16 -17 26 -24 27 -78
24 -109 -7 -23 -23 -84 -61 -84 -52 0 3 -30 -11 -67 -29 -43 -21 -71 -30 -77
-24 -27 27 -104 1 -107 -36 -3 -33 -2 -42 15 -97 21 -70 17 -85 -21 -80 -28 4
-135 -45 -150 -70 -3 -6 -8 -37 -10 -70 -5 -79 -33 -106 -68 -67 -10 11 -28
20 -39 20 -14 0 -28 12 -40 35 -11 19 -22 35 -26 35 -4 0 -7 20 -7 45 0 65
-47 127 -105 139 -35 7 -64 -6 -73 -34 -7 -23 -50 -28 -62 -6 -4 8 -25 21 -45
29 -26 11 -36 21 -32 30 8 21 -41 56 -69 50 -12 -3 -27 -10 -33 -15 -8 -6 -12
3 -12 29 0 21 -5 50 -11 65 -13 35 -90 108 -113 108 -10 0 -18 3 -19 8 0 4 -3
21 -6 37 -10 55 -4 86 22 116 14 17 28 42 31 55 11 42 -4 118 -25 132 -16 11
-17 17 -8 41 6 16 7 36 2 47 -4 10 -10 28 -12 38 -2 11 -8 25 -14 32 -5 6 -8
24 -5 39 3 17 -2 33 -15 46 -10 10 -19 23 -19 28 0 19 -86 101 -105 101 -26 0
-85 -36 -85 -52 0 -6 -2 -9 -5 -6 -7 7 -19 251 -20 398 l0 125 59 -3 c50 -2
66 2 98 23 21 14 38 29 38 33 0 15 59 52 74 46 14 -5 14 -9 1 -34 -19 -36 -19
-67 -2 -101 10 -17 11 -33 5 -50 -15 -37 9 -123 43 -155 32 -31 37 -68 14
-101 -23 -32 -31 -109 -14 -139 15 -28 80 -64 115 -64 12 0 29 6 36 14 8 7 24
16 36 20 31 10 62 54 62 87 0 34 4 35 37 9 14 -11 43 -23 65 -26 32 -6 38 -11
38 -30 0 -13 7 -41 16 -63 12 -32 24 -42 62 -57 26 -10 61 -19 77 -21 78 -6
79 -6 91 -48 7 -22 13 -53 13 -70 1 -21 15 -43 53 -82 57 -58 82 -65 119 -32
18 15 32 19 54 14 16 -3 46 -6 66 -6 29 0 39 -6 48 -25 11 -25 65 -55 92 -50
8 1 33 14 55 29 l42 28 27 -25 c48 -45 113 -25 118 35 1 13 11 43 22 67 l20
43 65 -6 c44 -4 70 -11 80 -23 8 -10 27 -23 42 -30 18 -7 26 -17 22 -26 -8
-20 46 -76 79 -82 37 -6 72 19 96 69 24 51 31 82 36 167 5 84 8 96 39 153 14
26 26 59 26 73 0 41 -27 93 -55 104 -32 12 -32 16 5 47 38 32 67 87 73 139 7
56 15 71 46 83 33 14 104 103 120 151 6 19 18 43 25 53 13 17 16 17 48 2 18
-8 51 -26 73 -40 22 -14 49 -25 60 -25 12 0 28 -12 38 -30 10 -16 22 -30 28
-30 5 0 9 -6 9 -14 0 -8 7 -22 16 -31 24 -24 25 -83 2 -139 -11 -28 -25 -62
-30 -76 -19 -48 -25 -55 -44 -56 -26 -1 -88 -30 -103 -47 -6 -8 -19 -44 -28
-79 -8 -34 -20 -69 -25 -75 -26 -32 1 -123 35 -123 16 0 67 -61 67 -80 0 -28
38 -60 73 -60 18 0 41 -7 51 -15 11 -8 30 -15 42 -15 25 0 84 56 84 80 0 9 9
25 20 35 17 15 53 102 55 130 0 6 26 11 57 12 74 2 122 25 142 68 9 19 15 37
14 42 -4 19 40 89 84 132 52 51 71 89 69 139 0 17 4 32 10 32 17 0 59 -32 59
-45 0 -8 14 -23 30 -35 26 -18 42 -21 115 -19 56 2 89 -1 97 -9 20 -20 48 -14
78 16 27 28 30 28 75 16 26 -6 56 -9 66 -7 21 6 77 79 104 136 9 20 23 37 30
37 11 0 39 50 36 65 -4 17 34 82 59 103 17 14 30 30 31 36 0 18 57 58 86 61
15 1 35 12 44 24 10 12 27 24 38 26 39 7 82 37 92 63 5 15 14 36 19 47 13 29
24 69 22 78 -1 4 15 4 36 1 34 -5 42 -3 59 19 11 14 32 29 46 32 35 9 61 64
47 100 -13 34 -4 64 26 87 12 10 26 27 29 38 9 27 -30 110 -51 110 -13 0 -13
3 5 18 11 9 27 35 34 57 13 36 12 46 -9 103 -24 66 -23 79 8 124 23 33 23 57
1 88 -10 14 -18 33 -19 43 -3 32 -4 36 -20 51 -8 9 -30 16 -48 16 -27 0 -33 5
-41 33 -7 22 -21 37 -44 48 -33 16 -34 17 -12 24 16 5 29 1 44 -13 12 -11 36
-27 54 -36 44 -22 81 -74 103 -143 31 -99 52 -133 100 -166 55 -38 169 -2 228
72 23 29 43 41 79 50 58 14 103 31 104 40 8 45 6 64 -11 81 -18 18 -18 22 -5
54 18 42 19 78 3 94 -8 8 -5 16 13 31 23 18 39 19 39 2z m442 -888 c117 -281
197 -511 284 -811 87 -303 179 -728 209 -962 3 -25 8 -56 10 -70 7 -37 14 -98
20 -160 3 -30 7 -71 10 -90 4 -33 7 -72 20 -217 21 -243 21 -853 0 -971 -22
-127 -90 -220 -221 -307 -375 -247 -904 -514 -1359 -688 -131 -49 -391 -139
-475 -162 -25 -7 -103 -29 -174 -50 -71 -20 -137 -38 -145 -40 -9 -2 -65 -15
-126 -29 -198 -47 -357 -79 -495 -101 -19 -3 -48 -7 -65 -10 -16 -3 -48 -7
-70 -10 -22 -3 -51 -7 -65 -10 -14 -3 -50 -7 -80 -10 -30 -3 -66 -8 -80 -10
-57 -10 -270 -27 -500 -40 -114 -7 -518 -7 -655 0 -141 7 -224 31 -303 89 -74
55 -139 146 -302 426 -363 624 -637 1316 -800 2018 -21 92 -42 183 -45 202 -3
19 -12 67 -20 105 -21 103 -44 245 -60 365 -3 25 -7 61 -10 80 -3 19 -7 62
-11 95 -3 33 -8 62 -10 64 -7 8 18 31 34 31 8 0 21 8 28 18 12 15 13 14 14
-10 0 -16 4 -28 8 -28 4 0 16 -25 27 -56 18 -52 18 -57 2 -84 -26 -44 -21 -66
23 -97 22 -15 40 -33 40 -39 0 -5 -14 -20 -30 -32 -17 -13 -30 -31 -30 -42 0
-10 -4 -21 -9 -24 -5 -3 -14 -19 -19 -36 -9 -26 -8 -34 13 -58 16 -20 22 -35
18 -55 -7 -37 40 -107 72 -107 12 0 34 -9 49 -21 28 -22 34 -68 17 -141 -9
-36 4 -70 33 -90 19 -13 66 -9 72 6 10 26 45 26 73 0 14 -13 35 -27 46 -31 11
-3 32 -15 48 -27 27 -20 106 -47 138 -47 9 0 23 -18 33 -39 9 -22 26 -42 36
-45 10 -3 21 -14 24 -23 3 -9 24 -28 45 -42 22 -13 38 -27 35 -31 -6 -10 63
-69 81 -69 7 0 26 11 42 24 15 13 32 23 37 23 18 -1 76 67 87 102 6 20 15 40
20 45 5 6 9 20 9 33 0 26 44 43 63 24 29 -29 97 1 116 51 9 25 7 83 -4 119 -5
14 2 24 29 40 20 12 36 25 36 30 0 5 13 9 29 9 16 0 34 7 41 15 15 18 68 45
89 45 13 0 16 -8 13 -39 -2 -22 3 -51 12 -69 17 -33 74 -82 95 -82 19 0 74
-33 89 -52 7 -10 22 -18 32 -18 10 0 25 -6 32 -14 8 -7 35 -25 61 -38 25 -14
55 -35 65 -48 13 -16 29 -23 50 -22 17 0 36 -6 43 -14 6 -8 19 -14 28 -14 14
0 16 -14 15 -102 l-2 -101 37 -39 c28 -31 44 -39 71 -40 19 0 42 -4 51 -9 19
-10 40 -97 45 -188 2 -38 10 -71 19 -81 8 -9 20 -31 26 -48 6 -18 19 -37 30
-42 15 -9 17 -18 12 -58 -3 -32 0 -60 11 -86 25 -61 21 -85 -17 -101 -18 -7
-41 -23 -51 -34 -22 -24 -29 -87 -12 -113 11 -19 -7 -64 -49 -117 -11 -14 -25
-41 -30 -61 -15 -51 15 -128 70 -179 38 -35 46 -38 85 -34 24 2 56 11 70 18
23 12 29 12 43 -2 11 -11 35 -16 82 -16 65 -1 66 -2 72 -29 3 -16 14 -34 24
-41 10 -7 22 -33 28 -57 14 -64 40 -93 92 -104 56 -12 88 -46 83 -89 -5 -39
17 -72 64 -96 40 -20 77 -19 102 4 26 24 68 17 53 -9 -15 -24 -12 -47 13 -83
31 -46 41 -53 80 -53 16 0 34 -4 40 -9 5 -4 30 -14 57 -21 26 -7 50 -17 53
-21 8 -14 53 -10 79 7 22 15 26 15 40 0 9 -9 24 -16 33 -16 19 1 52 23 52 35
0 4 11 20 25 37 14 16 25 35 25 42 0 24 46 104 74 128 21 18 30 36 33 67 4 36
-1 50 -37 103 -45 68 -45 79 1 142 16 22 29 47 29 56 0 9 4 20 9 25 16 17 16
48 2 83 -12 27 -12 37 -1 60 8 15 14 34 14 42 1 24 38 100 48 100 5 0 11 -6
14 -14 3 -8 19 -20 35 -26 24 -10 33 -10 54 4 14 10 30 29 36 44 6 14 37 52
69 83 43 41 58 62 55 78 -3 14 5 27 26 41 27 20 29 26 29 81 0 82 -20 119 -65
119 -11 0 -27 8 -36 18 -8 9 -25 24 -37 32 l-22 15 19 40 c58 121 62 132 51
159 -16 42 -13 54 15 51 28 -4 75 35 75 61 0 10 7 25 16 35 8 9 16 27 17 39 1
12 14 31 29 42 15 10 28 24 28 31 0 15 71 87 86 87 6 0 17 7 24 15 21 25 36
17 70 -34 18 -29 52 -63 81 -81 40 -26 49 -37 49 -60 0 -33 44 -75 90 -85 24
-5 42 1 90 31 60 37 120 90 120 106 0 4 8 16 19 27 10 10 20 24 22 30 3 8 26
12 60 12 30 0 61 4 67 8 26 16 62 76 62 103 0 20 8 31 28 42 15 8 36 28 46 44
11 17 35 37 53 46 30 14 83 95 83 127 0 16 82 88 101 89 23 0 42 25 42 55 0
14 2 25 6 25 4 0 15 14 25 31 20 33 24 33 31 -1 7 -37 87 -118 148 -151 33
-17 42 -18 78 -7 56 16 73 46 76 134 1 41 7 83 13 95 6 11 8 33 5 49 -5 24 -1
34 21 54 24 20 28 31 27 71 -2 41 2 51 28 72 16 14 27 29 23 34 -3 5 3 21 14
37 31 44 32 59 9 89 -12 15 -24 30 -28 33 -3 3 -14 22 -24 43 -10 21 -30 50
-46 64 -15 15 -26 30 -24 34 8 12 -88 104 -138 133 -26 15 -60 27 -75 26 -44
-3 -47 -2 -85 35 -20 20 -50 38 -67 41 -71 15 -43 48 42 51 41 1 67 8 80 20
19 17 19 28 3 78 -4 14 2 30 19 50 14 17 26 40 26 51 0 12 8 40 18 63 18 40
19 61 6 128 -5 25 -2 32 14 37 32 11 82 59 88 86 13 54 -1 100 -30 100 -6 0
-28 11 -48 25 -20 14 -47 27 -60 28 -13 2 -22 7 -21 11 16 52 14 78 -11 110
-14 19 -26 41 -26 48 0 8 -6 22 -13 33 -10 13 -11 29 -5 59 25 116 29 139 24
144 -6 6 13 32 23 32 4 0 23 -39 43 -87z"/>
</g>
</svg>
